<svg xmlns="http://www.w3.org/2000/svg" width="1333.333" height="1333.333" version="1.0" viewBox="0 0 1000 1000">
  <style>path{fill:#fff;}</style>
  <path d="M472.5 34.7c-20.2 1.6-30.9 2.7-42 4.3C343.3 51.9 262.1 89.2 195 147.1 105.4 224.5 49.7 330.9 36.4 450c-1.9 17.1-2.7 66.1-1.3 82.5 5.1 62.4 20 117.3 46.4 171 32.4 65.9 80.2 123.5 139.1 167.8 97.8 73.5 222.3 105.1 344.9 87.6 76.2-10.9 150.4-41.6 212.1-88C878.4 795.2 944.3 682.1 959.9 558c5.1-40.3 5-81.1-.4-122-9-67.2-33.6-133.4-70.9-190.5-19.5-29.8-36.4-50.4-62-76C746.5 89.7 643.3 42.9 530 35c-13.2-.9-47.8-1.1-57.5-.3zM526 39c81.1 5.2 156.5 30 224 73.8 32 20.7 66 49.7 90.3 76.9 69.3 77.7 108.2 167.7 117.7 271.8 1.6 17.3 1.3 60.1-.5 78.8-3.2 33.3-8.2 59.3-17 89.2C890.1 800.6 743.2 928.4 567 954.4c-26 3.9-43.5 4.8-76.5 4.3-33.2-.6-44.7-1.6-71.5-6.2C288.3 929.7 173.8 851 104.2 736.3c-9.8-16.1-27-50.7-33.6-67.5C39.8 590.5 31 507.2 44.5 423c23.4-145.2 119-273 253.1-338.5C367.6 50.3 448.8 34.2 526 39z"/>
  <path d="M465 44.6c-1.9.2-8.4.9-14.5 1.5-106.2 10.5-211.3 63-284.3 141.9C95.3 264.6 53.9 358 45 461.5c-1.4 15.4-1.4 59.5 0 75 11.3 131.3 76.4 248.8 181.5 327.7 65.8 49.4 145 80 228.8 88.4 19.9 2 64.7 2.3 83.2.5 38.4-3.7 74.5-11.3 107.7-22.7C783 883.4 889.3 775 933.3 637.5c15.1-47.3 22-94.8 21.1-145.5-.8-48.7-8.3-93-23.5-138.3-29.2-87.2-85.3-164.6-159.4-219.7-63.9-47.7-134-76-215.5-87.1-12.9-1.7-21.6-2.1-51.5-2.4-19.8-.2-37.6-.1-39.5.1zm84 5.8c54.8 6.5 104.4 21.3 152.1 45.2C829.6 159.9 920.3 282.2 944 423.2c8.3 49.6 8.3 102 0 151.6-19.3 114.4-82.5 217.2-176.4 286.9-66.2 49.2-143.9 78.9-226.5 86.7-33.4 3.2-79.5 1.8-112.6-3.5-143.7-22.8-267.8-113.7-332.9-243.8C71.5 653.2 57 604 50.3 548.2c-2.5-21-2.5-77.6 0-98.2 6.9-56.4 19.9-101 43.7-149.5C138.3 210.1 210.1 138.3 300.5 94c53.8-26.3 103-39.7 167.5-45.4 11.3-1 68.2.3 81 1.8z"/>
  <path d="M519 50.9c0 .5.7 1.1 1.4 1.4 1 .4 1.3.1.9-.9-.6-1.5-2.3-1.9-2.3-.5zM506.2 57c-2.1 4.3-2.6 6-1.6 6 .8 0 1.3-.3 1.3-.8-.4-2.3.4-3.2 2.7-3.2 1.7 0 2.8.6 3.1 2 .3 1.1 1.1 2 1.8 2 .9 0 .6-1.6-1-5.5-1.2-3.1-2.4-5.8-2.7-6-.3-.3-1.9 2.2-3.6 5.5zm4.2-.5c.4 1-.1 1.5-1.4 1.5-1.3 0-1.8-.5-1.4-1.5.4-.8 1-1.5 1.4-1.5.4 0 1 .7 1.4 1.5zM437.5 55.4c-1.1.8-1.8 2.5-1.7 4.4.1 3.8.7 4.8 3.5 6.3 2.1 1.2 2.1 1.1.5-.8-1-1.1-1.8-3.5-1.8-5.6 0-2.4.6-3.9 1.8-4.6.9-.6 1.2-1.1.6-1.1-.5 0-1.8.6-2.9 1.4zM444.6 57.5c1 2.4 1.1 4.1.4 6-1.2 3.2-.5 3.2 1.6 0 1.4-2.1 1.4-3 .4-5.4-.6-1.6-1.8-3.2-2.5-3.5-1.1-.4-1.1.2.1 2.9zM467.6 55.9c-.3.5.1 1.1.9 1.5.8.3 1.5.1 1.5-.4 0-1.3-1.8-2.2-2.4-1.1zM472.5 57.2c-.4 1.6-1.1 2.8-1.7 2.8-.5 0-.6.5-.2 1.1.9 1.4 3.7-3.6 3.1-5.4-.3-.7-.8 0-1.2 1.5zM476.7 55.7c-1 .9-.9 6.1.1 6.7.4.2.7-1.3.7-3.5 0-2.1 0-3.9-.1-3.9 0 0-.4.3-.7.7zM483 56.1c0 .5-.4.8-.9.5-.5-.4-.7.3-.4 1.4.3 1.1 0 2.6-.6 3.4-.9 1-.5 1.3 2 1.4 2.7.1 2.9-.1 1.4-1.1-1.3-1-1.4-1.8-.6-4 .7-1.7.7-2.7.1-2.7s-1 .5-1 1.1zM459.6 56.8c-.2.4-.1 1.4.3 2.1.5.7.6 2.2.4 3.2-.3 1-.1 1.9.4 1.9.4 0 .8-1.8.8-4 0-3.7-.7-5-1.9-3.2zM519.1 59.5c-1.1 1.9-1.6 3.5-1.2 3.5.5 0 1.8-1.6 3-3.5 1.1-1.9 1.6-3.5 1.2-3.5-.5 0-1.8 1.6-3 3.5zM528.8 56.7c1.5.6 1.6 4.5 0 6.1-.8.8-.8 1.2-.1 1.2 1.3 0 2.3-2.3 2.3-5.1 0-1 .5-1.9 1-1.9.6 0 1 1.5 1 3.4 0 3.5 1.3 5.5 2.5 3.6.3-.5.1-1-.4-1-.6 0-1.1-1.1-1.1-2.5s.5-2.5 1-2.5c.6 0 1-.5 1-1 0-.6-1.9-1-4.2-.9-2.4 0-3.7.3-3 .6zM539.6 60c.1 4.9 1.3 6.6 1.6 2.2 0-1.8.1-3.7.2-4.4.1-.6-.3-1.3-.9-1.5-.6-.2-1 1.4-.9 3.7zM450.1 62.7c-.1 4 .3 6.3 1 6.3.6 0 .9-.7.6-1.5-.8-1.9.8-2.8 4.6-2.7 2.2.1 2.7-.2 1.8-1.1-.6-.6-1.1-2.4-1.1-3.9s-.5-2.8-1-2.8c-.6 0-.9 1.4-.8 3.2.2 2.3-.2 3.3-1.3 3.6-1.2.2-2-.8-2.7-3.5-1-3.7-1-3.7-1.1 2.4zM543.8 57.7c.7.3 1.2 2.6 1.3 6.1l.1 5.7 1-4.7c1.2-5.5.6-7.8-1.9-7.7-1.1 0-1.3.3-.5.6zM550.1 59.8c-1 1.9-.4 6.2.8 6.2.3 0 .6-1.8.6-4 .1-4.5 0-4.7-1.4-2.2zM576.4 64c-.9 5.3-.8 6 .6 6 1.3 0 1.5-.7 1.2-3-.2-1.7 0-3 .4-3 .5 0 .9-1.4.9-3 0-5.2-2.1-3.2-3.1 3zM555.7 62.5c-.9 1.9-1.3 3.5-.8 3.5s1.8.3 2.8.6c1.4.4 1.5.4.4-.4s-1.1-1.6-.3-4.1c1.5-4.2 0-3.9-2.1.4zM583.7 61c.3 1.2-.1 2.2-1 2.6-1.3.5-1.4.9-.4 2.5 1 1.7.9 2.3-.7 3.5-1.7 1.2-1.7 1.4-.4 1.4 2.7 0 4.9-2.9 3.8-4.9-.6-1.2-.5-2.2.2-2.9 1.2-1.2.4-4.2-1.1-4.2-.5 0-.7.9-.4 2zM399 62.5c.1 3.7 2.6 11.9 3.3 10.8.4-.7.2-3.4-.4-6-1.3-5.2-2.9-7.9-2.9-4.8zM464.6 62.5c-.3.8-.1 1.5.4 1.5.6 0 1-.7 1-1.5s-.2-1.5-.4-1.5-.6.7-1 1.5zM416.3 65c.4 1.8.7 3.6.7 4.1 0 .5.8.9 1.8.8 1 0 1.2-.3.5-.6-.7-.2-1.3-1.8-1.3-3.3 0-1.6-.5-3.2-1.2-3.6-.8-.5-.9.2-.5 2.6zM523.7 63.1c.7.7 1.5 1 1.8.7.3-.3-.2-.9-1.2-1.2-1.4-.6-1.5-.5-.6.5zM390 63.7c.2 2.7 2.7 11.4 3.3 11.3 1 0 1-.4-.3-6.5-.6-3-1.6-5.5-2.1-5.5s-.9.3-.9.7zM407.4 64c-2.8 1.1-3.7 2.6-2.9 5 1.3 4.1 8.5 3.7 8.5-.6 0-1.3-.4-2.4-.8-2.4-.5 0-.8 1-.8 2.2.1 1.8-.5 2.3-2.4 2.3-2 0-2.5-.5-2.5-2.4s.8-2.7 4-3.7c3.1-.9 3.4-1.2 1.5-1.2-1.4-.1-3.5.3-4.6.8zM470 66.1c0 1.1.5 1.7 1 1.4.6-.3 1-1.3 1-2.1s-.4-1.4-1-1.4c-.5 0-1 .9-1 2.1zM485.9 95.4l-10.2 31.4-8.6.6c-24.5 1.9-61.6 9.6-83.1 17.3l-10.5 3.7-65.5.3c-36 .2-66 .5-66.7.7-.6.3-1.8 2.6-2.6 5.3-1.7 5.6-19.2 60.6-30.9 96.8l-8 25-9.2 14c-5.1 7.7-11.2 17.3-13.5 21.2-5.6 9.8-18.9 37.1-22.5 46.3-1.7 4.1-3.4 8.1-3.9 8.7-.7 1-8.6 1.3-33.3 1.3-27 0-32.4.2-32.4 1.4 0 .8.6 1.6 1.3 1.9 1.3.5 48.4 34.2 50.5 36.1 1 1 .9 2.8-.8 9.7-4.8 20.4-9 56.1-9 77.7 0 10.2-.1 10.7-8.1 35.5-4.4 13.9-13.2 41.4-19.5 61.2-6.2 19.8-11.8 37-12.4 38.3-1.1 2.5-5.8-1.2 71 55.4 23.6 17.5 35.8 27 38.5 30.5 2.2 2.7 7.8 9.9 12.5 15.9 8.1 10.4 37.2 40.6 47.3 49.2l4.8 4.1-10 30.8c-9.7 29.6-10.7 34.7-6.7 31.8.7-.6 6.7-4.9 13.2-9.6 6.6-4.7 17.6-12.7 24.6-17.7 7-5.1 13.1-9.2 13.6-9.2.6 0 5 2.5 9.8 5.6 17.6 11 44.6 23.8 68.3 32.5 7.4 2.7 14.4 5.7 15.5 6.7 1.2 1 11.6 8.8 23.1 17.2 62.2 45.5 81.9 60.4 80.6 60.8-.7.2-.8.8-.3 1.5s1.7 3.3 2.7 5.9c1 2.7 2.1 4.8 2.5 4.8.4 0 1.8-2.7 3.3-6 1.4-3.3 2.2-6 1.7-6-.4 0-1 .9-1.3 2.1-.4 1.6-1.2 2-3.4 1.7-1.6-.2-2.9-1-3.1-1.9-.2-1.2 15.7-13.2 53.6-40.4l53.8-38.8 18-6.2c9.8-3.4 21.5-7.8 25.9-9.7 12.1-5.3 35-17 44.4-22.7l8.4-5.1 15.6 11.2c8.6 6.2 20.7 15 26.9 19.5 6.2 4.6 11.6 8.1 12.1 7.9.4-.3-1.9-8.5-5.1-18.3-3.2-9.8-7.8-24-10.2-31.5l-4.4-13.8 9.7-8.4c19.4-17 41.6-41 55.9-60.8l6.3-8.6 47.7-34.3c26.2-18.9 48.8-35.1 50.2-36.1 3.3-2.3 7-1.5 6.3 1.5-.3 1.6-.2 1.8.5.9.6-.9 2-1.1 4.6-.7 5.2 1 4.4-.1-1.4-2-4-1.3-5-2.1-4.5-3.4.3-1-5.6-20.6-13.1-43.7-7.4-23-16-49.5-19-58.7l-5.4-16.9v-16.2c0-28.4-3.7-61.3-9.5-85.5-1.5-6.2-2.2-10.7-1.6-11 7.4-4.6 51.1-36.9 51.1-37.9 0-.9-7.1-1.2-32.3-1.2h-32.3l-3.9-9.3c-4.6-11-16.1-34.5-21.8-44.2-5.4-9.4-16.5-26.1-24.2-36.5l-6.3-8.5-15.2-47c-8.3-25.9-17.1-52.6-19.3-59.5l-4.2-12.5h-129l-11.4-3.8c-23.4-7.8-57.7-14.7-82.6-16.5l-10-.7-10.3-31.3C502.5 74.9 498.4 64 497.5 64c-.8 0-4.9 10.9-11.6 31.4zm10.5 4.4-.7 26.1-8.4.3c-5.5.2-8.3-.1-8.3-.8 0-1.2 14.5-46.3 16.1-50.3.5-1.3 1.2-2.1 1.5-1.9.3.3.2 12.3-.2 26.6zm9.1-7.8c3.1 9.6 6.7 20.8 8.1 24.8 1.3 4 2.4 7.7 2.4 8.2 0 .6-3.6 1-8.5 1H499V99.8c0-14.4.2-25.9.4-25.7.3.2 3 8.3 6.1 17.9zm-9.5 40c0 1.8-.7 2-6.9 2-3.8 0-8.3.3-10.1.6-2.8.6-3.2.4-2.8-1.2.4-2.3 3.8-3.1 13.1-3.3 6.1-.1 6.7.1 6.7 1.9zm21.8-.8c2.4 2.4 1 2.8-8.8 2.8-9.3 0-10-.1-10-2 0-1.8.7-2 8.8-2 5.5 0 9.2.4 10 1.2zm-44 1.5c-.3 1.5-3 2.1-17.4 3.9-19.7 2.5-23 3.1-45.7 8.5-9.2 2.2-18.2 3.9-20 3.7l-3.2-.4 3-1.3c9.8-4.2 54.8-13.6 74-15.4 9.2-.8 9.7-.8 9.3 1zm81.2 1.9c15.8 2.4 49.1 10.2 52.8 12.3 3.8 2.3-7.5 1-21.7-2.4-18.4-4.4-34-7-50.6-8.6-12-1.2-14.4-1.9-14.5-4.3 0-1.2 14.7 0 34 3zm-59 7.9v5.5h-12c-13 0-12.7.2-10.9-6.1 1.3-4.3 1.8-4.4 15.7-4.7l7.2-.2v5.5zm22.6-4.9c1.9.5 4.4 5.7 4.4 9.3 0 .7-3.7 1.1-12 1.1h-12v-11h8.8c4.8 0 9.7.3 10.8.6zm-46.6.7c0 .2-.7 2.4-1.6 5l-1.6 4.7h-27.6c-15.1 0-27.3-.2-27.1-.4 2-2 57.9-10.9 57.9-9.3zm72.4 1.7c14.8 1.9 38.3 6.3 39.4 7.5.3.3-12.5.5-28.5.5h-29.1l-1.6-4.7c-.9-2.6-1.6-4.8-1.6-5 0-.7 6.8-.2 21.4 1.7zM496 257.8v107.9l-17.2.6c-9.5.4-30.9.7-47.5.7-28.2 0-30.3-.1-30.3-1.7 0-1 1.8-7.2 3.9-13.8 3.5-10.6 23.3-71.3 40.1-123 3.2-9.9 9.9-30.4 14.9-45.5 4.9-15.1 9.2-28.5 9.6-29.7.7-2.4 2.7-2.7 18.8-3.1l7.7-.2v107.8zM524.5 151c.4.6 3.4 9.5 6.7 19.8 9.2 28.5 15.7 48.6 40.2 124.1 12.4 38.1 22.3 69.8 22 70.2-.3.5-21.9.9-48 .9H498v-80.8c0-44.5.3-93.1.7-108l.6-27.2h12.3c7.3 0 12.5.4 12.9 1zm85.5 3.4c31.8 10.7 58.6 23.4 85 40.2 6.3 4.1 12.3 8 13.3 8.8 1.8 1.4.2 3.7-25 38.4l-26.8 36.9-8 1.6c-18.9 3.8-35.2 16.1-43.4 32.8-6.2 12.6-8.5 26.6-6.2 38.4.5 2.9.3 4.7-.8 6.7-.8 1.6-1.8 2.8-2.1 2.8-.3 0-2.8-6.6-5.4-14.8-4.8-14.6-62.1-191.1-63.2-194.5-.5-1.7 1.2-1.8 35.3-1.5l35.8.3 11.5 3.9zm17.2-1c25.4 9.3 51.9 22.7 75.5 38.3 7.7 5.1 11 7.9 10.6 8.9-.3.8-.7 1.4-1 1.4-.2 0-5.5-3.3-11.6-7.4-25.3-16.7-51.1-29.5-81.2-40.2l-12-4.3h5.2c3.5-.1 8.2 1 14.5 3.3zm120.6-.2c-1.3 1.8-8.8 12.2-16.7 23l-14.2 19.6-11.7-7.7c-6.4-4.3-15.3-9.9-19.7-12.4-10-5.7-36.5-18.6-46.5-22.6l-7.5-3 59.4-.1h59.3l-2.4 3.2zm-394.3 2.7c-24.4 10.6-49.6 24.6-68.3 38L278 199l-4.9-6.8c-2.7-3.7-10.3-14.1-17-23.2-6.6-9.1-12.1-16.8-12.1-17.3 0-.4 27.1-.7 60.3-.7l60.2.1-11 4.8zm24.5-1c-30.7 11-60.2 26.1-85.8 43.8-8.3 5.8-11.2 6.9-11.2 4.3 0-2.4 30.9-21.8 51-32 26.8-13.5 43.2-19.9 51-19.9h5.5l-10.5 3.8zm85.5 9.3c-2.3 7.3-10.9 33.5-19 58.3-8.1 24.7-17.3 53.1-20.5 63-16.9 52-25.1 76.9-25.5 77.3-.3.3-.7.3-.8.1-.2-.2-7.7-10.5-16.7-22.9-9-12.4-34.1-46.8-55.8-76.4-21.7-29.7-39.6-54.5-39.9-55.2-.2-.6 5-4.8 12.4-9.7 28-18.7 56.9-32.7 88.8-43.3l13-4.3 34.1-.1h34.2l-4.3 13.2zm289.8-7c.9 2.4 7.7 23.4 15.2 46.8 7.5 23.4 14.2 44.1 14.9 46 .8 1.9 1.9 5.3 2.5 7.5l1.1 3.9-4.7-5.4c-13.1-15.5-45.1-45.3-60.7-56.6l-3-2.1 7.9-10.9c14.3-19.7 24.5-33.4 24.9-33.4.2 0 1 1.9 1.9 4.2zM259 176.8c9.1 12.5 16.5 23 16.5 23.3 0 .3-4.7 4.3-10.5 9-17.9 14.3-43.5 40.2-58.3 58.9-1.5 1.9-2.5 2.8-2.3 2 .3-.8 4.3-13.4 9-28 4.6-14.6 12.9-40.3 18.2-57.3 5.4-16.9 10-30.7 10.3-30.7.3.1 8 10.3 17.1 22.8zm474 37.1c17 13.7 43 40.1 55.3 56.3 1.6 2 3.5 5.8 4.3 8.4.8 2.6 1.2 4.6 1 4.3-.2-.2-5-6.3-10.7-13.4-13.3-16.7-38.8-42.1-55.6-55.4-10.3-8.2-13-10.8-12.1-11.8 1.2-1.5 2.1-.9 17.8 11.6zm-453.2-7.4c-.2.7-5.5 5.4-11.8 10.6-21.7 17.5-50 47.8-65.9 70.7-2.4 3.4-4.6 6.1-4.8 5.8-.8-.7 2.6-8.8 5.2-12.5 13-18.9 45-52.6 64.9-68.4 10-8 13.2-9.6 12.4-6.2zm447.3 11.2c16.8 13.4 39.4 35.9 52.5 52.4 17.6 22 16.8 20.4 29.3 58.9 6.1 19 11.1 34.8 11.1 35.2 0 .5-22.8.8-50.6.8h-50.6l.6-2.3c.4-1.2 1.3-5.1 2.1-8.7 6-26.7-8-55.8-32.6-67.9-8.4-4.1-19.1-7-26.1-7.1h-3.7l26.2-36c14.4-19.8 26.7-36 27.3-36 .6 0 7.1 4.8 14.5 10.7zm-431.6 9c6.6 9.1 32.1 44.1 56.7 77.7s44.7 61.4 44.8 61.8c0 .5-23.8.8-52.8.8-29.1 0-79.3.3-111.7.7l-58.8.6.7-3.4c.3-1.9 4.6-15.7 9.5-30.7 8.8-26.9 9-27.4 16.4-38.5 11.7-17.3 27.8-36.8 43.2-52.3 13.4-13.5 36.8-33.4 38.9-33.4.6.1 6.5 7.5 13.1 16.7zm377 55.8c17.9 3.7 33.6 15.7 41.4 31.6 9.2 18.8 9.2 36 0 54.8-9.6 19.5-31.6 33.1-53.4 33.1-21.8 0-43.8-13.6-53.4-33.1-9.2-18.8-9.2-36 0-54.8 11.8-23.8 39.2-37.1 65.4-31.6zm132.7 11.2c10.5 15.8 14.8 23.2 23.1 39.8 8.1 16.2 14.2 30.4 13.4 31.2-1.6 1.5-3.6-1.5-8.6-12.8-6.6-15.2-17-34.6-26.8-50.1-6.9-11-11.6-20.8-9.9-20.8.2 0 4.2 5.7 8.8 12.7zm-612.5 5.4c-.8 2.4-4.6 9.9-8.4 16.6-8.6 14.9-14 25.8-20.3 40.6-2.9 6.9-5.4 11.3-6.4 11.5-.9.2-1.6-.2-1.6-.8 0-2.1 8.2-20.4 16.1-36 7.4-14.7 20.8-37.4 21.6-36.7.1.2-.3 2.4-1 4.8zm615.1 10.7c8.4 13.6 27.2 51.5 27.2 54.7 0 .3-2.7.5-6.1.3l-6.1-.3-9.4-29c-5.1-16-9.4-29.3-9.4-29.8 0-1.5.9-.5 3.8 4.1zm-628.9 32.6c-3.9 12.1-7.5 22.8-8 23.8-.7 1.2-2.1 1.8-4.5 1.8-3.2 0-3.5-.2-2.8-2.3 2.4-8 21-46.4 22-45.5.1.2-2.9 10.2-6.7 22.2zm423 20.6c1 2.9.9 3-2 3-3.3 0-3.7-1.4-1.2-4.2 2.1-2.3 1.9-2.3 3.2 1.2zm221.8 12c1.3 4.1 3 9.4 3.7 11.7l1.4 4.1-5.7 2c-3.1 1.1-19.1 6.4-35.6 11.7-16.5 5.3-38.1 12.3-48 15.5-9.9 3.2-36.4 11.8-59 19-22.5 7.2-43.4 14-46.3 15.1-7.1 2.6-7.9 2.4-9.1-1.4-.5-1.7-6.6-20.5-13.5-41.7-6.8-21.2-12.7-39.5-13.1-40.8-.6-1.9-.3-2.2 2.3-2.2 2.6 0 3.4.8 6.2 5.7 5 8.9 15.2 18.3 25.1 23.2 19 9.3 37.8 9.3 56.8 0 9.9-4.9 20.1-14.3 25-23.1l3.3-5.8 34.6-.3c19.1-.1 42.5-.2 52.1-.2h17.4l2.4 7.5zm15.9 1.5c1.8 4.9 3.3 9.3 3.3 9.6.1.8-11 4.2-11.6 3.5-.6-.6-7.3-20.6-7.3-21.9 0-.4 2.8-.7 6.2-.5l6.2.3 3.2 9zm6.6-1.5c3.2 8.9 3.3 10.3 1.2 9.8-1-.2-2.7-3.3-4.5-8.3-3.4-9.5-3.4-9.7-1.1-9.3 1.1.2 2.6 2.8 4.4 7.8zm54.8-7.6c0 .2-8.7 3.2-19.2 6.6-10.6 3.3-21.1 6.8-23.2 7.6-2.1.8-4.3 1.1-4.7.7-.5-.5-2-4.1-3.3-8.1l-2.5-7.2h26.5c14.5 0 26.4.2 26.4.4zm-311 1.5c0 .4-7.5 11.2-16.7 23.8-9.3 12.6-26.2 35.9-37.8 51.7-27.5 37.8-36.3 49.7-37 50.4-.3.3-.5-27.9-.5-62.6v-63.1l15.3-.4c37-.7 76.7-.6 76.7.2zm11.9 19.6c3.3 10.4 9.7 30 14.1 43.5 4.4 13.4 7.6 24.7 7.2 25.1-.4.4-26.1 8.8-57.2 18.8s-58.3 18.8-60.4 19.6c-6.6 2.5-7.3 3.8 10.8-21 6-8.3 12.6-17.3 14.6-20 2-2.8 14.2-19.4 27-37 34.7-47.7 36.2-49.7 37-48.8.4.4 3.5 9.3 6.9 19.8zM396 370.2c0 1-20.7 65.5-26.3 81.6-2.1 6.2-2.2 6.3-5 5.8-2.6-.5-28-8.6-80.2-25.6-9.9-3.3-40.5-13.2-68-22-27.5-8.9-50.3-16.5-50.6-16.9-.3-.3 1-5.6 3-11.6l3.6-11 86.5-.5c47.6-.3 97.9-.6 111.8-.8 18.5-.1 25.2.1 25.2 1zm99.4 61.5c-.4 34.6-.8 62.9-.9 63.1-.1.1-6.2-8-13.6-18-7.3-10.1-18.1-24.8-23.9-32.8-43.9-60-54-73.9-54-74.4 0-.3 20.9-.6 46.5-.6H496l-.6 62.7zm408.5-61.4c-1.5 1.3-44.1 31.7-44.3 31.7-.7 0-4.9-16.1-4.3-16.6.8-.8 48.1-16.1 48.6-15.7.2.1.2.5 0 .6zm-754.9.8c0 2.7-4.5 14.9-5.4 14.9-.6 0-10.8-3.1-22.6-7-11.8-3.8-22.2-7-23-7-1 0-1.1-.3-.3-.8.6-.4 12.4-.8 26.2-1 19.5-.3 25.1-.1 25.1.9zm8.8.1c-.3.7-1.7 5-3.2 9.5-2.7 8-3.7 9.5-5.1 7.3-.6-1 2.7-12.4 4.7-16.3 1-1.9 4.3-2.4 3.6-.5zm11.4-.6c.4.3-1 5.3-2.9 11l-3.5 10.5-3.2-.6c-1.7-.4-3.4-1-3.9-1.4-.6-.6 4.1-16.4 5.8-19.1.7-1.1 6.8-1.4 7.7-.4zm235.2 5.2c2.2 3.1 7 9.7 10.6 14.7 8.8 11.8 73.9 101 76.9 105.2 1.4 2.2 1.8 3.3 1 3.3-.7 0-27.2-8.4-58.9-18.6-31.6-10.2-59-19-60.7-19.5-1.8-.6-3.3-1.3-3.3-1.7 0-.3 5-15.9 11.1-34.6 6.1-18.8 12.4-38.2 14-43.1 3.9-11.9 3.7-11.5 4.6-11.5.4.1 2.6 2.6 4.7 5.8zM117 380.3c28 8.9 26.3 8.2 25.5 11.5-2.2 9.1-3.8 13.3-4.9 12.9-1.4-.5-41.6-29.4-43.1-31-.7-.7-.5-.8.5-.5.8.3 10.7 3.5 22 7.1zm735.7 14.8c2.4 7.6 2.6 11 .7 11.6-1.1.4-6.6-17.6-5.7-19 1.2-2 2.9.5 5 7.4zm-6.7 1.1c3.8 12.7 3.8 13-1.1 16.6-2.4 1.8-4.6 3.2-4.9 3.2-.7 0-8.3-23.1-7.8-23.5.4-.4 10-3.3 11-3.4.4-.1 1.7 3.1 2.8 7.1zm-695.4-3.3c-.3.9-1.4 4.9-2.5 9-2.3 8.3-2.7 8.9-4.3 7.3-1.1-1.1.6-9.5 3.3-16.9 1-2.6 4.3-2.1 3.5.6zm10.6 2c.9.8-5.7 21.6-6.9 21.6-.4 0-1.9-.8-3.2-1.7-2.4-1.7-2.4-1.9-1.3-6.9.7-2.9 1.9-7.6 2.8-10.5l1.5-5.3 3.2 1.1c1.8.6 3.5 1.4 3.9 1.7zm672.4 10.6c1.9 6.3 3.4 11.9 3.2 12.4-.1.5-12.7 9.8-27.8 20.7-67.3 48.3-88.2 63.4-100 71.9-34.6 25-52.3 37.5-52.7 37.1-.5-.5-28.1-85.1-28.5-87.5-.3-1.5 3.1-2.7 54.2-19.1 15.7-5.1 36.6-11.8 46.5-15 9.9-3.2 31.5-10.2 48-15.5 16.5-5.3 34.5-11.2 40-13 5.5-1.9 10.8-3.4 11.7-3.4 1.4-.1 2.6 2.5 5.4 11.4zm-660.3-7.1c8.3 2.7 159.7 51.8 179.1 58 7.1 2.2 13.1 4.6 13.3 5.3.2.6-5.2 18.6-12.2 40-6.9 21.3-12.7 39.2-12.8 39.6-.2.5-2.5-3.5-5.1-9-4.2-8.3-6.3-11.2-14-18.8-6.9-6.9-11-10.1-17.1-13.2-13-6.7-20.1-8.5-34.8-8.9l-12.8-.3-22.7-16.4c-12.5-9-27.9-20.1-34.2-24.7-6.3-4.6-18.4-13.3-26.8-19.3-8.3-6-15.4-11.2-15.6-11.6-.7-1.1 6.5-23.1 7.6-23.1.5 0 4.2 1.1 8.1 2.4zM859.4 421c4.9 22.7 8.7 54.9 8.5 73.9v8.6l-1.6-4c-.9-2.4-2.1-11.4-2.9-22.3-1.6-21.2-4.4-41.1-7.9-56.6-1.9-8.5-2.2-11.2-1.3-11.8 2-1.2 2.5 0 5.2 12.2zM142 427.8c-1.6 7.9-3.6 21.6-4.5 30.5-1.5 14.8-5.1 33.4-6.3 32.3-1.5-1.6 3.7-47.2 7.4-65.1 2.8-13.3 3.4-14.9 4.9-13.4 1.2 1.2 1 3.6-1.5 15.7zm711.4-2c3 14.2 6.6 41 6.5 48-.1 4.6-.1 4.5-3.4-5.3-9.2-27.5-15.5-47.3-15.5-48.7 0-1.7 8.2-8 9.2-7 .3.4 1.8 6.3 3.2 13zm-701.6-7.5 2.2 2.3-6.7 20.7c-3.7 11.4-6.8 20.5-7 20.3-1-.9 5.3-39.2 7.2-44.4.7-1.8 1.9-1.5 4.3 1.1zM847 446.7c15.7 48.7 14.3 42.2 13.6 62.8-.7 25.1-4.4 51.9-10.1 74.8-3.8 14.9-7.8 27.7-8.9 27.7-1 0-49.4-15.4-64.1-20.5-3.8-1.3-20.3-6.6-36.5-11.9-67.6-21.7-83-26.8-83.5-27.5-.7-1.3 2.1-3.4 38-29.1 18.7-13.4 37.6-27 42-30.1 50.8-36.8 100-71.9 100.5-71.9.4 0 4.4 11.6 9 25.7zm-676.4-15c7.5 5.4 18 12.9 23.3 16.8 5.4 3.8 15.8 11.4 23.2 16.7 7.4 5.3 18.3 13.2 24.3 17.5 6.1 4.4 11.1 8.4 11.3 8.9.2.6-2 1.6-4.9 2.3-2.8.8-9.2 3.4-14.2 5.9-7.5 3.7-10.7 6.2-18.1 13.6-10 10.1-15.4 19-19.6 32.6-3.4 10.8-3.4 30.2-.1 40.9 1.6 4.9 2 7.6 1.3 8-.6.4-10.1 3.6-21.2 7.1-15.9 5-20.3 6-20.9 5-1.2-1.9-6.8-23.3-9.6-36.9-4.9-22.9-6.7-41.6-6.8-69.1l-.1-25.5 8.8-26.8c4.8-14.7 9-26.7 9.3-26.7.3 0 6.6 4.4 14 9.7zm456.9 35.8c14.1 41.9 26.5 81.9 25.8 82.6-.9.9-9-1.6-68.8-21.1-40.2-13-77.2-24.9-81.2-26.1-2.4-.7-4.3-1.6-4.3-2 0-.7 16-6 89-29.5 16.2-5.3 30.6-9.9 32-10.4 4.3-1.5 5.1-.7 7.5 6.5zm-237.2 1.1c11.1 3.6 23.4 7.6 27.2 8.9 3.9 1.3 20.5 6.7 37 12 34.6 11.1 34.6 11.1 32.5 11.9-1.5.6-25.2 8.2-76 24.6-15.7 5-37.3 12-48.1 15.6-10.8 3.5-19.9 6.4-20.3 6.4-.3 0-.6-.8-.6-1.7 0-1.5 10.4-34.1 22.6-71.3 4.5-13.7 4.3-13 4.9-13 .3 0 9.7 2.9 20.8 6.6zm-252.8 71.9c2 17.1 6.2 38.7 11 55.9 1.9 7 3.5 13 3.5 13.2 0 .2-.7.4-1.5.4-2 0-2.9-2.4-8-22.5-5.4-21.2-9.1-44.7-10.7-67.6-1.1-16.5-1-18.1.8-24.5l1.9-6.9.6 19c.4 10.5 1.4 25.4 2.4 33zm145.3-45.9c29.2 6 51.6 28.4 57.6 57.6 8.1 39.2-17.8 78-57.6 86.2-39.2 8.1-78-17.8-86.2-57.6-10.5-50.6 35.6-96.7 86.2-86.2zm584.1 30.6c-2.6 32.8-14.8 88.8-19.6 88.8-1.8 0-1.9.2 3.1-17.4 7.5-26.7 11.9-53.9 13.2-81.6l.7-14.5 1.8 6.2c1.5 5.3 1.6 7.9.8 18.5zM492 503.5c0 .3-8.6 12.3-19.1 26.8-10.6 14.4-27.3 37.3-37.2 50.9-10 13.7-18.4 24.8-18.8 24.8-.4 0-6.6-4.2-13.6-9.3-18.3-13.3-31.1-22.6-44.3-31.9-13.1-9.3-16-11.7-16-13.3 0-.6 9.6-4.2 21.3-7.9 11.6-3.8 32-10.4 45.2-14.6 13.2-4.3 36.2-11.7 51-16.5 14.9-4.7 27.5-8.8 28-9 1.6-.6 3.5-.5 3.5 0zm2.6 158.2c-.4.4-38.2-26.5-66.8-47.4l-8.7-6.4 32.6-44.7c18-24.6 34.9-47.9 37.7-51.8l5.1-7 .3 78.4c.1 43.2 0 78.7-.2 78.9zm22.2-132c9.9 13.7 26.6 36.5 37.1 50.8 10.5 14.3 19.1 26.4 19.1 27 0 .5-12 9.5-26.6 20-14.6 10.4-31.3 22.5-37.2 26.7-5.9 4.2-11 7.7-11.4 7.7-.5.1-.8-9.9-.8-22.2 0-27.7 1.2-134.7 1.6-134.7.1 0 8.3 11.1 18.2 24.7zM555 522c27.2 8.8 59.5 19.3 71.8 23.2 12.2 4 22.2 7.5 22.2 7.8 0 .3-16.5 12.5-36.6 27l-36.7 26.3-1.8-2.4c-3.9-5.1-70.3-96.1-71.3-97.8-.6-1-.4-1.2 1-.7 1.1.3 24.2 7.8 51.4 16.6zm-426.6 7c1 16.4 5.3 41.9 10.3 61 2.5 9.6 4.6 18.6 4.7 19.9.1 2.3-1.2 2.9-26.6 11.1-14.8 4.8-26.8 8.5-26.8 8.3 0-.2 6.1-19.6 13.6-43.1s15.7-49.3 18.2-57.3c5.2-16.4 5.5-16.4 6.6.1zm755.4 32c6.1 19 13.8 42.8 17.1 53 3.3 10.1 5.9 18.6 5.7 18.8-.5.4-51.7-15.9-52.9-16.8-.4-.3.2-3.3 1.3-6.5 6-17.5 13.6-55.4 15.6-77.9.4-4.4 1-7.3 1.4-6.5.4.8 5.7 16.9 11.8 35.9zm-227.9-5.3c.5 1 13.8 41.6 29.6 90.3 15.8 48.7 30.9 95.4 33.7 103.8 2.7 8.4 4.8 15.7 4.6 16.1-.3.9-19.4 15.1-20.2 15.1-.2 0-10.6-13.9-23-30.9-15-20.5-23.2-32.7-24.6-36.4-3.2-8.4-9-16.7-16.4-23.2-7-6.2-9.2-9.1-41.6-53.5-10.6-14.6-19.7-27-20.2-27.6-.5-.8 11.5-10 36.9-28.3 20.8-14.9 38.3-27.1 39-27.1.7 0 1.6.8 2.2 1.7zm19.7 5.4c8.7 2.7 45.2 14.5 80.9 26.1 35.8 11.6 69.4 22.5 74.8 24.2 6.3 2 9.7 3.6 9.7 4.5 0 2.8-11.3 29.8-18.4 44.2-11.8 23.5-31.3 54-41 63.9-3.6 3.7-54.4 40.5-55 39.9-.2-.2-3.1-9-6.5-19.4-3.4-10.5-7-21.5-8.1-24.5-1.8-5.5-9.2-28.3-20.8-64-3.3-10.2-8.5-26.2-11.5-35.5-22.4-68.7-21.1-64.5-20.3-64.5.1 0 7.5 2.3 16.2 5.1zM365.2 572c41 29.5 49.3 35.8 49.2 37.2-.1.8-9.8 14.7-21.6 30.9-24 32.8-72.1 98.8-90.2 123.6-7.2 9.9-12.3 16-13 15.6-.6-.4-5.2-3.8-10.3-7.5l-9.2-6.8 1.3-4.3c2.9-9 19.7-60.3 20.6-62.7.5-1.4 5.9-18 12.1-37l11.2-34.5 7.7-8.1c8.5-9.1 14.4-19.2 18.1-31.4 1.8-5.8 2.3-10 2.3-18.7.1-6.2.4-11.2.9-11 .4.1 9.8 6.7 20.9 14.7zM203 603.8c5 9.8 18.9 23.5 29.5 28.9 13.5 7 21 8.8 36 8.8 14.9 0 22.6-1.9 35.4-8.6 4.1-2.1 7.6-3.7 7.8-3.6.1.2-3.6 11.7-8.2 25.7-18.4 56-34.5 105.7-34.5 106.9 0 2-1.8 1-16.1-9.6-31.7-23.2-32.9-24.2-41.7-35.8-15.6-20.5-31-46.8-41.5-70.5-5.6-12.9-12.3-30.1-12.9-33.4-.3-1.7 2.4-2.8 20.2-8.6 11.3-3.8 21-6.8 21.5-6.9.6 0 2.6 2.9 4.5 6.7zm222.8 11.9c4.4 3.2 18.3 13.2 30.8 22.3 12.6 9 26.2 18.8 30.2 21.8l7.3 5.4-12.3 8.7c-11.1 7.8-91.4 65.6-148 106.4l-21.7 15.6-9.6-7.1c-5.3-3.8-9.5-7.4-9.3-7.9.2-.5 4.8-7.1 10.4-14.6 10-13.7 70-95.9 98.8-135.5 8.3-11.5 15.2-20.8 15.3-20.8.1 0 3.8 2.6 8.1 5.7zm175.7 29.9c14.3 19.6 26.1 36 26.3 36.4.1.4-2.3-.2-5.5-1.3-22.1-7.5-48.8 1.8-61.3 21.3-1.8 2.8-3.5 5-3.9 5-1.3 0-58.1-41.1-58.1-42.1 0-.4 4.4-3.9 9.8-7.6 5.3-3.8 15.6-11.2 22.7-16.3 26.2-19 43-30.9 43.5-30.9.3-.1 12.2 16 26.5 35.5zm-445-24.1c10.9 30.4 27.4 62.3 45.6 87.7 4.3 5.9 7.5 10.8 7.2 10.8-.3 0-2.5-1.6-4.8-3.5-4.2-3.4-15-18.9-23.2-33-13.2-22.7-32.6-67.5-30.7-70.6 1.3-2.1 2.8.1 5.9 8.6zm-7.5 3c6.8 19.3 20.6 48.5 31 65.5 10.6 17.2 9.7 15.6 7.4 14-2.5-1.8-27.1-19.9-54.9-40.5-11.2-8.3-25.1-18.5-31-22.9-5.9-4.3-10.3-8.2-9.8-8.6.4-.5 12.2-4.5 26.2-8.9s25.6-8.3 25.9-8.6c1-1 2.1 1 5.2 10zm698.3-7.9c.7.7-4.4 14.9-9.6 27.1-9.2 21.2-26.6 52.4-36.4 65.2-1.8 2.5-5 5.5-6.9 6.9-4.1 2.8-4.2 2.8 4.7-9.9 9.5-13.5 18.2-28.2 26.5-44.9 6.8-13.7 18.4-41.3 18.4-43.8 0-1.3 2.2-1.6 3.3-.6zm33.2 10.7c11 3.6 21.1 6.9 22.4 7.4 2.4 1 2.2 1.2-5 6.5-26 19.1-86.1 62-86.4 61.7-.2-.2 2.4-4.7 5.7-9.9 10.6-16.9 25.5-47.8 32.3-67.1l2.7-7.7 4.1 1.4c2.3.7 13.2 4.2 24.2 7.7zm-385.5 66c0 14-.3 57.2-.7 96.2l-.6 70.8-11.6-.7c-32.9-1.9-64.2-7.8-94.8-17.7-22.1-7.2-24.6-8.5-49.8-27.1-23.4-17.2-23.5-17.3-21.3-19 3.5-2.6 22.3-16.1 92.8-66.8 35.5-25.5 69-49.6 74.5-53.6s10.3-7.3 10.8-7.4c.4 0 .7 11.4.7 25.3zm30.5-5.7c14.9 10.8 27.8 20.1 28.7 20.8 1.7 1.2 1.7 1.7-.2 9.1-5 19.4-.1 37.5 14 51.5 19 19 46.2 21.3 68.8 5.8 2.4-1.6 4.9-2.8 5.6-2.5 1.1.5 34 23.9 35.9 25.7.9.8-45 34.4-52.6 38.5-7.6 4.2-34.1 12-56.6 16.6-14.9 3.1-38.6 5.8-56.1 6.6l-16 .6v-96.1c0-52.9.3-96.2.8-96.2.4.1 12.9 8.9 27.7 19.6zm91.4-6.1c18.7 4.4 34.2 19.9 38.6 38.6 4 17.2-1.1 34.5-14 47.4-20.4 20.4-51.6 20.4-72 0s-20.4-51.6 0-72c12.9-12.9 30.2-18 47.4-14zm175.2 40.2c-4.2 7.8-34.8 40.6-49.9 53.6-9.5 8.2-10.2 8.6-10.2 5.9 0-1.1 3.8-5.2 9.9-10.6 11.4-9.9 25.8-24.7 35.7-36.6 5.6-6.6 13.5-14 15.1-14 .2 0-.1.8-.6 1.7zm-565.2 18.6c10.6 11.9 21.2 22.5 31.9 31.9 4.2 3.8 5.1 5.1 4.4 6.4-.8 1.4-2.3.5-9.8-6.3-16.3-14.7-45.4-46.5-45.4-49.6 0-1.9 8.4 5.9 18.9 17.6zm454 14c11.1 15.2 20 28.1 19.7 28.6-.8 1.3-17.9 13.4-19.1 13.5-.5.1-9.4-5.9-19.7-13.3l-18.7-13.4 3.3-3.9c7.8-9.1 12.6-22.2 12.6-34.8 0-3.5.4-6 .8-5.5.5.6 10 13.5 21.1 28.8zm83.4-9.6c-8.8 9.6-32 31.3-33.4 31.3-.4 0-1.4-2-2.2-4.5l-1.6-4.5 22.7-16.3c12.5-9 22.9-16.3 23.1-16.1.2.2-3.6 4.8-8.6 10.1zm-517.7 5.8c9.3 6.9 17.8 13.2 18.8 13.8 1.7 1.2 1.8 1.7.7 5-1 2.8-1.6 3.5-2.7 2.9-4.4-2.5-36.1-34.2-34.2-34.2.3 0 8.1 5.6 17.4 12.5zm32.8 24.2c5 3.6 9.3 6.7 9.5 6.9.6.5-4 6.4-5.1 6.4-.8 0-11.3-7.8-16.2-12.1-.8-.7 1.1-7.9 2.1-7.9.3 0 4.6 3 9.7 6.7zm447.5-1.3c.6 2.5 1.1 4.7 1.1 4.9 0 .8-15.8 12.7-16.8 12.7-.5 0-2.1-1.8-3.6-4l-2.6-3.9 5.3-3.9c12.2-8.8 14.1-10.2 14.8-10.2.4 0 1.2 2 1.8 4.4zm-452.5 11.7c7.6 6.1 8.5 7.2 6.6 8.4-1.5.9-16-10.6-16-12.7 0-1 .4-1.8.9-1.8s4.3 2.7 8.5 6.1zm455.6-1.2c0 1.1-2.8 4-7.4 7.4-6 4.6-7.6 5.4-8.6 4.3-.8-1.1.5-2.7 6.7-7.5 4.3-3.3 8.1-6.1 8.6-6.1.4 0 .7.8.7 1.9zm-429 6.8 9 6.6-3.5 2.4-3.5 2.4-7.6-5.3c-4.2-2.8-7.8-5.8-8.1-6.4-.5-1.3 2.6-6.3 3.9-6.4.4 0 4.8 3 9.8 6.7zm405.2-1.8c2.6 3.6 2.6 3.9 1 5.4-2.9 2.5-14.4 9.7-15.6 9.7-.7 0-2.7-1.3-4.6-2.8l-3.3-2.9 9.3-6.6c5.1-3.7 9.6-6.7 9.9-6.7.3 0 1.8 1.8 3.3 3.9zm-434.9 4c3.1 2.4 5.7 4.7 5.7 5.1 0 .7-29 41.1-31.2 43.5-.6.6-.7.5-.4-.5.2-.8 3.7-11.4 7.6-23.5 9.6-29.7 9.9-30.6 11.4-29.8.6.5 3.8 2.8 6.9 5.2zM741 817c4.5 14 8.4 25.8 8.7 26.2.2.5.2.8-.1.8-1.3 0-31.7-43.3-31-44 3-3 13-9.8 13.5-9.2.4.4 4.4 12.2 8.9 26.2zm-446.2-17c5.4 3.7 6.1 4.7 3.8 5.6-1.2.5-6-2.4-15.5-9.2-.2-.2-.1-1.1.3-2 .7-1.8-.4-2.3 11.4 5.6zm417.2-2.6c0 1.5-7.7 7.6-12.3 9.7-1.8.8-3.1.9-3.7.3-.7-.7 1.5-2.8 6.2-6.1 7.7-5.4 9.8-6.2 9.8-3.9zm-381.4 15.2c10.1 7.4 18.4 13.7 18.4 13.9 0 1.2-23.9-11.1-37.4-19.3l-5.9-3.5 2.9-2.4c1.6-1.2 3.1-2.3 3.3-2.3.2 0 8.6 6.1 18.7 13.6zm-43.9-8.4c3.5 2.4 6.2 4.6 6.1 5-.2.4-8.8 6.9-19.3 14.3-10.4 7.5-19.8 14.4-20.8 15.2-3.8 3.5-2.2.3 4.1-8.3 3.7-5.1 10.2-13.9 14.5-19.8 4.3-5.8 8.1-10.6 8.5-10.6.4 0 3.5 1.9 6.9 4.2zM689 806c0 1.8-49.4 26.9-50.7 25.7-.2-.3 9.4-7.5 21.3-16l21.7-15.6 3.8 2.7c2.1 1.5 3.9 2.9 3.9 3.2zm41.9 16.9c7.8 10.6 14.1 19.4 13.9 19.6-.3.3-39.5-27.9-41.6-29.9-1-1 .1-2.1 5.5-5.9 3.7-2.6 7-4.3 7.4-3.9.4.4 7.1 9.4 14.8 20.1zm-421.7-13.5c8.9 5.6 28.6 15.9 42.9 22.5 7.5 3.4 15.2 7.5 17 9.1l3.4 2.9-6-2.3c-24.7-9.6-67.6-32.1-66-34.7 1.1-1.6 3.3-1 8.7 2.5zm384.7-.1c.8 1.1-1 2.5-8.7 6.9-11.4 6.6-29.4 15.6-40.7 20.5-10.2 4.5-26.7 10.5-27.2 10-.9-1 8.4-6.1 19.7-10.7 14.3-5.9 36.1-16.6 47-23.3 8.6-5.2 8.4-5.1 9.9-3.4zM383.6 844c29.1 10 65 16.8 97.7 18.6 11.5.6 12.7.9 12.7 2.5 0 2.3-1.1 2.3-20.1.9-40.2-3.2-94.6-16.3-99.4-24-.8-1.4-1-1.4 9.1 2zm230.4 1.4c0 .2-1.7 1.5-3.8 3-10.8 7.5-74 18.6-105.9 18.6-6.6 0-7.3-.2-7.3-2s.7-2 8.4-2c27.7 0 65.9-5.8 95.1-14.5 11-3.2 13.5-3.8 13.5-3.1zm-201.5 15.1c18.8 4.7 42.2 8.2 63.7 9.7l17.8 1.2v58.7l-2.7-2c-1.6-1.1-9.4-6.8-17.5-12.8-8-5.9-23.8-17.5-35-25.8-50.8-37.3-46.6-34.1-42.8-33.1 1.4.4 8.8 2.2 16.5 4.1zm182.4-1.1c-.2.2-20 14.4-43.9 31.6-23.9 17.3-45.9 33.1-48.7 35.2l-5.3 3.9V871h8.3c20.4 0 57.2-4.5 76.7-9.4 8.9-2.2 13.9-3.1 12.9-2.2zm-95.1 81.3c-.4 2.2-2.2 2-2.6-.1-.2-1 .3-1.6 1.3-1.6s1.5.7 1.3 1.7z"/>
  <path d="M662 286.2c0 1.2.7 1.8 2.3 1.7 1.5 0 1.7-.2.7-.6-.8-.3-1.8-1.1-2.2-1.7-.5-.7-.8-.4-.8.6zM647.3 288.3c.1.5.6.8 1 .8.4-.1 1.4-.1 2.2-.1.8 0 1.5-.4 1.5-.9s-1.1-.8-2.5-.7c-1.4 0-2.4.5-2.2.9zM653.8 287.7c.6.2 1.8.2 2.5 0 .6-.3.1-.5-1.3-.5-1.4 0-1.9.2-1.2.5zM671 288.4c1.4.8 2.7 1.2 2.9 1 .6-.6-.1-1.1-2.9-1.8l-2.5-.7 2.5 1.5zM678.2 290.2c.5 1.5 2.8 1.8 2.9.3 0-.6-.7-1.2-1.7-1.3-1-.3-1.5.1-1.2 1zM637.1 290.9c-.7.5-.9 1.1-.4 1.4.6.4 1.9 0 2.9-.8 1.5-1.1 1.6-1.4.4-1.5-.8 0-2.1.4-2.9.9zM634 291.9c0 .6.4 1.3 1 1.6.6.3.7-.1.4-.9-.7-1.8-1.4-2.1-1.4-.7zM683.6 292.5c.4.8 1.1 1.5 1.6 1.5.6 0 .5-.6-.2-1.5-.7-.8-1.4-1.5-1.6-1.5-.2 0-.1.7.2 1.5zM689.9 295.7c-1.3 1.6-1.2 1.7.4.4.9-.7 1.7-1.5 1.7-1.7 0-.8-.8-.3-2.1 1.3zM629.2 295.9c-1.1.7-1.1.9 0 1.4.9.3 1.5-.1 1.5-.9s-.1-1.4-.1-1.4c-.1 0-.7.4-1.4.9zM625.5 298c.3.5 1.1 1 1.6 1 .6 0 .7-.5.4-1-.3-.6-1.1-1-1.6-1-.6 0-.7.4-.4 1zM692 297.7c0 1 6.2 6.3 7.4 6.3.6 0-.7-1.6-2.7-3.5-3.7-3.5-4.7-4.1-4.7-2.8zM620.7 303.5c-.8.8-1.8 1.1-2.2.7-.5-.4-.5-.1-.1.6.6 1.1 1.2 1 2.7-.4 1-.9 1.9-1.9 1.9-2.1 0-.7-.9-.2-2.3 1.2zM703.5 308c-.8 1.3 1.3 4 2.9 3.9.7 0 .6-.2-.2-.6-.6-.2-1-.9-.6-1.4.3-.5 0-.9-.6-.9s-.8-.5-.5-1c.3-.6.4-1 .1-1-.3 0-.8.5-1.1 1zM612.6 313.7c-.3 1-1.4 3.3-2.5 5.2-1.1 1.9-1.7 3.9-1.4 4.5.4.6.8.4 1.1-.4.2-.8 1.5-3.6 2.8-6.3 1.3-2.6 1.9-4.7 1.5-4.7-.5 0-1.1.8-1.5 1.7zM707.5 316c.3.5.8 1 1.1 1 .2 0 .4-.5.4-1 0-.6-.5-1-1.1-1-.5 0-.7.4-.4 1zM710.5 321c-.3.6.1.7.9.4 1.8-.7 2.1-1.4.7-1.4-.6 0-1.3.4-1.6 1zM711.4 324.6c.3.9.6 1.8.6 2 0 .2.4.4.9.4s.7-.9.4-2c-.3-1.1-1-2-1.5-2-.6 0-.7.7-.4 1.6zM606.8 325.7c.7.3 1.6.2 1.9-.1.4-.3-.2-.6-1.3-.5-1.1 0-1.4.3-.6.6zM713.1 331c0 .8.4 2.4.9 3.5.5 1.3.9 1.4.9.5 0-.8-.4-2.4-.9-3.5-.5-1.3-.9-1.4-.9-.5zM606.4 332.5c-.3.8-.4 2-.2 2.7.3.7.7.1 1-1.5.6-2.9.1-3.6-.8-1.2zM604 337c0 .6.7 1 1.5 1s1.5-.2 1.5-.4-.7-.6-1.5-1c-.8-.3-1.5-.1-1.5.4zM714 341c0 .5.5 1 1.1 1 .5 0 .7-.5.4-1-.3-.6-.8-1-1.1-1-.2 0-.4.4-.4 1zM605.1 343.7c0 .5.4 1.7.9 2.8.8 1.8.9 1.7.9-.8.1-1.5-.3-2.7-.9-2.7-.5 0-1 .3-.9.7zM713.5 347.9c-.3.5-.1 1.2.5 1.6.5.3 1-.1 1-.9 0-1.8-.6-2.1-1.5-.7zM712.8 354.7c.7.3 1.6.2 1.9-.1.4-.3-.2-.6-1.3-.5-1.1 0-1.4.3-.6.6zM608.3 360c.3 3.7 1 4.5 3 3.7.9-.4.9-.6 0-.6-.7-.1-1.3-.9-1.3-1.9 0-.9-.5-2.4-1-3.2-.8-1.1-.9-.6-.7 2zM711.5 358.1c-1.1 1.7.1 2.1 1.5.4.8-.9.8-1.5.2-1.5-.6 0-1.4.5-1.7 1.1zM709.5 366c.3.5.8 1 1.1 1 .2 0 .4-.5.4-1 0-.6-.5-1-1.1-1-.5 0-.7.4-.4 1zM707 368.5c-.8.9-.8 1.5-.2 1.5 1.2 0 2.6-1.9 1.9-2.6-.2-.2-1 .2-1.7 1.1zM612.4 369.7c.2.9.8 1.8 1.5 1.9.6.1.7 0 .1-.3-.5-.2-.8-.9-.5-1.3.3-.5.1-1.1-.4-1.4-.5-.4-.8.2-.7 1.1zM704.4 372.5c-1 .8-1.4 1.5-.8 1.5.6 0 1.7-.7 2.4-1.5 1.6-1.9.9-1.9-1.6 0zM618 376.8c0 .5.9 1.7 2 2.7 1.7 1.5 2.3 1.6 3.3.5.6-.7.7-1 .1-.7-.6.4-2.1-.3-3.2-1.4-1.2-1.1-2.2-1.6-2.2-1.1zM699.3 378.9c-.3 1.1-.9 1.9-1.3 1.6-.4-.3-1.3.2-1.9.9-.8 1-.9 1.6-.1 2.1.5.3 1-.1 1-1s.4-1.4.8-1.1c.5.3 1.6-.4 2.5-1.4 1-1.2 1.2-2.2.6-2.6-.6-.3-1.3.3-1.6 1.5zM626.2 384.9c.7 1.1 1.6 1.7 2 1.4 1-.5-1-3.3-2.3-3.3-.5 0-.4.9.3 1.9zM688.3 387.2c-1.3.6-2.3 1.5-2.3 2s-.4.6-1 .3c-.5-.3-1-.1-1 .6s-.3.9-.6.6c-.4-.3-1.5-.2-2.6.4-3.4 1.8-1.2 2.1 3.1.3 2.2-.9 4.1-2.1 4.1-2.6 0-.6.9-.8 1.9-.5 1.4.3 1.8.1 1.4-.9-.3-.8-.6-1.4-.7-1.3 0 0-1.1.5-2.3 1.1zM635.6 390.7c-.6 1.4-.5 1.5.5.6.7-.7 1-1.5.7-1.8-.3-.3-.9.2-1.2 1.2zM642.9 394.1c1.2 1.2 2.4 1.9 2.7 1.6.7-.6-2.5-3.7-3.9-3.7-.6 0-.1.9 1.2 2.1zM670.8 393.8c-4 .5-3.4 2 .7 1.8 1.9 0 3.5-.4 3.5-.8 0-1.1-1.3-1.4-4.2-1zM650.9 395.3c1.3 1.3 5.4 2 4.7.8-.3-.5-1.7-1.1-3.2-1.4-1.8-.3-2.2-.1-1.5.6zM665.1 394.9c-.7.5-2.2.6-3.2.4-1-.3-1.9-.1-1.9.4 0 .6 1 .9 2.3.9 1.2-.1 2.8.2 3.5.7.8.7 1.2.3 1.2-1.2 0-2.4 0-2.4-1.9-1.2zM282.9 499.2c-.1.7-.1 1.7 0 2.2.1.5-.5 3.2-1.4 6l-1.6 5.1h-10.8c-9.8 0-10.7-.2-10.3-1.8.6-2.4-1.5-2.2-2.3.3-.8 2.4-1.8 2.5-3.6.4-1.1-1.4-1.1-1.8.4-2.9 1.6-1.2 1.6-1.3-.4-1.8-1.9-.5-2-.8-.9-2.1.7-.9.8-1.6.2-1.6-.5 0-1.5.7-2.2 1.5-1 1.2-1 1.8 0 3 .6.8.8 2 .4 2.6-.4.7.1 1.8 1.1 2.5 1.6 1.2 1.4 1.4-2 2.8-2.1.9-4.1 1.6-4.6 1.6s-2-2.1-3.3-4.8c-3-5.7-3.3-5.1-.7 1.1l2 4.5-5.7 4.2c-3.1 2.4-4.7 3.2-3.5 1.9 1.6-1.7 1.9-2.9 1.3-3.9-.8-1.3-1-1.3-1 .1 0 .9-.9 2.4-2 3.4s-1.7 2.1-1.5 2.5c.3.4-.3 1.4-1.3 2.1-1.5 1.2-1.6 1.2-.4-.2 1-1.3.9-1.9-.3-2.9-3.4-2.8-3.7-4.8-.9-6.3 2.4-1.3 2.4-1.4.8-2.8-1-.8-1.5-.9-1.1-.3.4.6-.2 1.9-1.2 2.8-1.6 1.5-1.9 1.5-3.6-.4-1-1.1-1.5-2.6-1.1-3.7.6-1.5.5-1.5-1.4.2-2 1.8-2 1.8 2.3 6.9 5.9 6.9 6.2 8.2 3.1 11.8-6.5 7.8-11.4 22-11.4 33.3 0 16.1 8.6 33.6 21.3 43.2l2.8 2.2-2.6 5.1c-2.7 5.4-2.3 8 1.4 8 1.4-.1 1.4-.2-.2-1.4-1.8-1.4-1.7-1.6.4-5.8 1.2-2.3 2.3-4.4 2.4-4.6.2-.2 2.6.8 5.4 2.2 21.8 11.1 51.7 4.4 66.1-14.9 1.9-2.5 3.6-4.1 3.8-3.5.3.7.9.4 1.7-.6 1.1-1.6 1.4-1.6 4.7.4 3.8 2.3 4.8 2.7 4.8 1.4 0-.4-2.1-2-4.6-3.6-3-1.9-4.3-3.4-4-4.3.3-.8.6-1.7.6-2.1 0-.3.6.3 1.4 1.4.8 1 1.8 1.6 2.2 1.2.4-.4.3-1.3-.2-2-.9-1.2-.9-2.4-.5-7 0-1.1.6-1.5 1.6-1.2.9.4 1.5 0 1.5-.9s.8-1.8 1.8-2c.9-.2.5-.3-1-.2-2.9.2-3.7-1.6-1.8-4.5.7-1.2 1.2-1.1 3.2.5 1.3 1.1 2.6 2.5 3 3.1 1.2 1.7 9.2.2 9.6-1.9.2-.9-.1-1.7-.7-1.7s-1 .6-.8 1.2c.5 2.6-4.3 1.8-9.2-1.4-4.9-3.2-7-6.4-3.3-5.1 1.4.5 1.5.3.5-.8-.7-.7-1.3-2.6-1.3-4.1 0-2.2.5-2.8 2.3-2.9 1.2-.1 2.9-.3 3.7-.4.8-.1 3-.3 4.8-.4 1.9 0 3.2-.6 3.2-1.4 0-1.1-1.7-1.3-7.8-.9l-7.8.4-1.8-5.8c-.9-3.3-1.9-6.4-2.2-7.1-.3-.7 1.3-2.3 3.5-3.8 4.4-2.7 5.4-5.9 2.2-7-1.3-.4-1.7-1.2-1.4-2.5.3-1.1 0-2-.6-2s-1.1.4-1.1.9-1.6 1.9-3.6 3.2l-3.6 2.2-2.1-2.2c-1.3-1.3-1.6-2.1-.9-2.1.7 0 1-.5.7-1.1-1.2-1.8 2.7-5.1 5.2-4.4 3.1.7 2.9-.9-.3-3.4-3.1-2.4-5.2-2.8-3.4-.6 1 1.2.7 2-1.8 4.3l-3 2.8-2.5-2.1-2.6-2 3.1-1.8c2.8-1.6 3-2.1 2.5-5.7-.3-2.2-.1-4.3.4-4.6.5-.3.9-1 .9-1.6 0-.6-.8-.4-1.8.5-1 1-2.7 1.7-3.8 1.7-3 0-4.5 1.5-5.3 5l-.6 3.2-2.4-1.9-2.3-1.9 2.1-4.2c2.5-4.8 2.5-5.2.9-5.2-.7 0-2.1 2.1-3.2 4.6-1.4 3.4-2.2 4.4-3.5 3.9-.9-.4-2.8-1.2-4.3-1.7-3.5-1.2-3.6-2.8-.3-2.8 2.8 0 6.5-3.2 6.5-5.5 0-1.7-3.5-5.5-5-5.5-.5 0-.9-.5-.7-1.2.1-.6-.6-1.4-1.5-1.6-1-.2-1.9.2-1.9 1zm5.9 6.4c.3 3.3-1.8 6-4.2 5.1-1.1-.4-1.2-1.3-.3-4.7 1.3-4.9 4-5.2 4.5-.4zm-9 9.9c9.3 2.2 18.2 7 18.2 9.8 0 1.7.2 1.9.9.8.7-1.2 1.4-1 3.8.8 3.3 2.6 8.9 9.4 10.9 13.3 1 2 1.1 2.9.2 3.4-.7.5-.4 1 1 1.5 7.2 2.7 7.5 36.6.3 43.8-.9.9-1.6 2.2-1.4 2.8.6 1.6-7.2 11.3-12 15.1-12.9 10.3-29.4 14.3-44.5 10.7-5.5-1.3-8.8-2.8-18.8-8.3-4.5-2.5-12.2-11.3-15.8-18.1-4-7.7-6.6-17.2-6.6-24.6 0-10.7 4.9-24.1 12.2-33.2 4.5-5.7 13.7-12.6 16-12 1.1.3 1.8 0 1.8-.8 0-1.4 5.8-3.9 12.5-5.4 6.1-1.4 14.4-1.2 21.3.4zM304 517c-2.5 3.6-4 4.6-4 2.8 0-2.1 3-5.8 4.6-5.8 1.2 0 1.1.6-.6 3zm4-.5c0 1.8-4.8 7-5.7 6.2-.5-.5 4.5-7.7 5.3-7.7.2 0 .4.7.4 1.5zm14.9 17.4c2 1.3.7 3.7-3 5.6-2.6 1.4-3.3 1.5-4 .3-1.4-2.2-1-3.2 1.9-5 3.3-2 3.4-2 5.1-.9z"/>
  <path d="M276 501.9c-1.9 3.6-.6 8.1 2.4 8.1.6 0 .5-.5-.2-1.2-1.8-1.8-1.5-4.5.8-6.8 2-2 2-2 0-2-1 0-2.4.9-3 1.9zM254 502.9c0 .5.7 1.1 1.5 1.5.8.3 1.5.1 1.5-.3 0-.5-.7-1.1-1.5-1.5-.8-.3-1.5-.1-1.5.3zM243.9 505.5c-.8.8 1.4 9.5 2.4 9.5.5 0 .6-1.7.2-3.8-.8-4.1-1.8-6.5-2.6-5.7zM233.6 511.2c2.4 4.2 4.7 6.8 6 6.8 1 0 .5-1.3-1.7-4-3-3.7-5.9-5.6-4.3-2.8zM223.5 512c-.3.6.1.7.9.4 1.8-.7 2.1-1.4.7-1.4-.6 0-1.3.4-1.6 1zM207.7 540.4c-1.3 3.9-1.3 4.7-.1 6.5 3.7 5.2 12.1.2 9.5-5.6-.9-2-1.7-2.4-4-2.1-2.3.3-2.7.1-2.3-1.4 1-3.8-1.7-1.6-3.1 2.6zm8.2 2c1.4 1.6.5 4.2-1.6 5-1.4.6-6.3-1.7-6.3-2.8 0-3.5 5.6-5 7.9-2.2zM204 552.9c-1.6 3.1-1.2 4.3.9 2.2 2.3-2.3 5.5-1.8 7.6 1.2l1.5 2.1v-2c0-4.7-7.8-7.4-10-3.5zM330.7 563c-.3 1.2 0 2 .8 2s1.1-.8.8-2c-.3-1.1-.7-2-.8-2-.1 0-.5.9-.8 2zM337.8 563.5c-.3 1.4-.1 2.5.3 2.5.5 0 .9-1.1.9-2.5s-.2-2.5-.4-2.5-.6 1.1-.8 2.5zM202.3 565.7c-1.9 2.1-3.9 3.7-4.5 3.5-.5-.1-.6.2-.3.8.5.8 1.4.6 3-.4 2.1-1.4 2.4-1.3 4 .4 3.3 3.6 8.5 2 8.5-2.6 0-2.3-3.3-5.4-5.8-5.4-.8 0-3 1.7-4.9 3.7zm8.1-1.1c3.7 1.4 1.2 5.4-3.4 5.4-2.9 0-4.4-2.5-2.5-4.4 1.7-1.7 3.4-2 5.9-1zM197 565c-.6 1.2-.9 2.4-.7 2.7.3.2 1.1-.5 1.7-1.7.6-1.2.9-2.4.7-2.7-.3-.2-1.1.5-1.7 1.7zM207 574.7c-2 .7-4 3.3-4 5.2.1 1.3.3 1.3 1.1-.2 2.2-3.8 8.9-4.4 8.9-.7 0 2.6-2.6 4.3-6 3.8-2.4-.4-2.7-.2-1.9.9 1.4 1.6 6.1 1.7 7.7.1 2-2 1.4-6.5-1-8.2-2.4-1.7-2.5-1.7-4.8-.9zM321.5 584c-.3.5.1 1 1 1 .8 0 1.8.6 2.1 1.4.3.8 1.3 1.2 2.5.9 1.4-.4 1.9 0 1.9 1.5 0 1.1-.6 2.2-1.2 2.5-.7.2-.9.8-.5 1.3 1.2 1.2 2.7-1.6 2.7-5 0-2.3-.4-2.7-1.9-2.3-1.2.3-2.2-.1-2.5-.9-.6-1.6-3.2-1.9-4.1-.4zM201.5 591.9c-.3.5-.1 1.2.5 1.6.5.3 1-.1 1-.9 0-1.8-.6-2.1-1.5-.7zM212.5 595.7c-3.3 1.8-6.4 3.4-6.9 3.6-.5.2-.7.8-.3 1.4.4.6 2.8 0 6.4-1.8 3.2-1.6 6.4-2.9 7.1-2.9 1.3 0 1.5-1 .4-2.5-.4-.7-2.9.1-6.7 2.2zM312.7 599.7c-1.3 1.2-.7 2.5.9 1.9.9-.3 2.8.3 4.4 1.4 3.1 2.2 4 2.5 4 1.1 0-.9-6.5-5.1-7.9-5.1-.4 0-1.1.3-1.4.7zM308.2 605.3c-2.3 2.5-2.9 4.7-1.2 4.7.6 0 1-.9 1-1.9 0-2.6 1.7-3.6 3.6-2.1 1 .9 1.1 1.6.4 2.5-.8.9-.4 1.1 1.5.7 1.9-.3 2.5 0 2.5 1.3 0 .9-.9 1.9-2 2.2-1.1.3-2 .9-2 1.5 0 1.3 3.8-1 4.8-3 1.2-2.1.5-4.2-1.4-4.2-.8 0-1.4-.6-1.4-1.4 0-.8-.7-1.7-1.6-2-2.1-.8-1.8-.9-4.2 1.7zM227.7 607.7c-1.3 1.3-.7 2.1 1.3 1.6 2.3-.6 3.9 2.2 2.2 3.9-.8.8-1.6.7-2.9-.3-1.6-1.3-1.7-1.2-.5.3.8.9 1.1 2.2.7 2.8-1.1 1.8-3.2 1.1-4-1.3-.4-1.6-.8-1.8-1.2-.8-.6 1.6 3.1 5.1 5.3 5.1.8 0 1.4-.8 1.4-1.9 0-1 .9-2.1 2-2.4 2.6-.7 2.5-3.1-.2-5.7-2.3-2.1-3.1-2.4-4.1-1.3zM300 613.9c0 1 6.5 5.1 8.1 5.1 2 0 .7-1.6-3.1-3.8-4.3-2.4-5-2.6-5-1.3zM241.3 620.6c-2.7 4.1-2.9 6.4-.7 6.4.8 0 1.3-.4.9-.9-.3-.6.4-2.5 1.5-4.3 3.5-5.8 1.9-6.9-1.7-1.2zM288.7 618.6c-1.2 1.2-.8 2.4.7 1.8.9-.3 1.7.6 2.4 2.5.9 2.6.8 3.2-.6 4-3 1.7-.5 2.3 2.6.7 3.7-1.9 5.4-4.1 2.5-3.2-1.5.5-2.3-.1-3.4-2.6-1.4-3.2-3-4.4-4.2-3.2zM300 620.7c0 1.2.5 2.5 1 2.8 1.3.8 1.3-1.5 0-3.5-.8-1.2-1-1.1-1 .7zM252.3 621.2c.3 1.2-.8 6.7-2.7 12.5-.6 1.8-.3 2.3 1.1 2.3 1.3 0 1.8-.8 2-3.3.1-1.7.8-5.1 1.6-7.4 1.2-3.7 1.2-4.3 0-4.7-2.1-.9-2.5-.7-2 .6zM277 622.4c-1.4 1.8-1 5.8.7 6.3.7.3 1.1-.8 1-2.9-.2-2.7.2-3.4 2-3.6 3-.4 5.3 3.9 3.3 6.3-.7.9-1.9 1.4-2.7 1.1-1.6-.7-6.4 1.4-5.8 2.4.6 1 8.5-.7 10.2-2.2 1.8-1.4 1.6-5.3-.3-7.2-1.9-2-6.8-2.1-8.4-.2zM244 632.8c0 1.2 1.9 2.6 2.6 1.9.2-.2-.2-1-1.1-1.7-.9-.8-1.5-.8-1.5-.2zM255 636c-1.3.8-1.2 1 .3 1 .9 0 1.7-.5 1.7-1 0-1.2-.1-1.2-2 0zM615.6 683.1c-1.1 3.5-1.6 8.9-.8 8.9 1 0 2.5-9 1.7-9.8-.2-.3-.7.1-.9.9zM611.6 684.6c-1.8 1.8-2 3-.6 3.9.6.3 1-.2 1-1.2 0-1.1.5-2.4 1.2-3.1.7-.7.9-1.2.6-1.2-.4 0-1.4.7-2.2 1.6zM618.8 687.9c-.3 1.7-.1 3.1.3 3.1 1.3 0 2.2-4.1 1.1-5.2-.6-.6-1.1.1-1.4 2.1zM595.4 688.7c.2 1.5.8 2.9 1.4 3.1.8.2.9-.5.1-2.7-1.3-3.8-1.9-3.9-1.5-.4zM590.8 689c-.4 1.4-.8 3.8-.7 5.5 0 3 0 3 1 .5.6-1.3.9-3.8.7-5.5-.3-2.9-.3-3-1-.5zM621.5 691.1c-1 3 0 3.3 1.3.4.6-1.4.7-2.5.2-2.5-.5 0-1.2.9-1.5 2.1zM583.1 691.2c.2 2.2 1.7 6.4 1.8 5 .1-.7.5-1.1 1-.7.5.3 1.3 0 1.7-.6.4-.8.3-.9-.4-.5-.8.4-1.6-.3-2.2-1.8-1-2.7-2.1-3.5-1.9-1.4zM599 691.1c0 .5.5.7 1 .4.6-.3 1-.8 1-1.1 0-.2-.4-.4-1-.4-.5 0-1 .5-1 1.1zM625.5 693c-1 1.1-1.4 2-.8 2 .5 0 1.8-.9 2.8-2 1-1.1 1.4-2 .8-2-.5 0-1.8.9-2.8 2zM579.1 694.6c-.1 1.7-.6 2-2.5 1.7-1.3-.3-2.7 0-3 .6-.5.7-.1.9.9.5.8-.4 2.2-.1 3 .6 1 .8 1.5.9 1.5.2s.8-.9 1.8-.5c1.4.5 1.5.4.6-.8-.6-.8-1.4-2.1-1.7-2.9-.4-1-.6-.8-.6.6zM630.8 695.5c-2 2.6-2.2 3.5-1 3.5.9 0 3.5-5 3-5.5-.2-.2-1.1.7-2 2zM594 695c-.9.6-1 1-.3 1 .6 0 1.5-.5 1.8-1 .8-1.2.4-1.2-1.5 0zM635.3 698.7c-1.8 3.7-1.6 5.2.2 2.6 1-1.5 2.2-2 3.3-1.6 1.5.6 1.5.4-.2-1.5-1.1-1.2-2-2.2-2-2.2-.1 0-.7 1.2-1.3 2.7zM573 699.7c.1 1.3 4.9 6.8 5.4 6.2.3-.3-.8-2-2.4-3.8-1.7-1.8-3-2.9-3-2.4zM639.1 703.7c-1.3 1.3-2 2.3-1.5 2.3 1.5-.1 4.6-2.8 4.3-3.7-.2-.4-1.5.2-2.8 1.4zM564.5 705.6c1.1.8 3 2.3 4.2 3.4 1.2 1.1 2.5 1.5 2.7 1.1.3-.5-1.1-2-3.2-3.5-4-2.7-7.2-3.6-3.7-1zM643.2 704.7c.2.6-1.3 2.6-3.2 4.3-3.6 3.2-1.4 2.5 3-.9 2.1-1.7 2.3-2.2 1.2-3.3-.9-.9-1.2-.9-1-.1zM561.3 717.7c-.7.2-1.3.9-1.3 1.4 0 .6.7.6 1.8.1.9-.5 2.3-.7 3.1-.4.8.3 1.1 0 .7-.7-.7-1.1-2.2-1.3-4.3-.4zM649.2 722c-1.2 1-2.8 2-3.5 2.3-.6.2-.9.7-.5 1.1.5.7 8.8-4.1 8.8-5 0-1-2.8-.1-4.8 1.6zM561.1 722.5c.8.7 3 1.6 4.9 2 4.6.9 3.6.1-1.9-1.9-3.4-1.1-4.1-1.2-3-.1zM646.7 728.7c-.3.5.8.8 2.3.8 1.5 0 2.6-.3 2.3-.8-.2-.4-1.3-.7-2.3-.7-1 0-2.1.3-2.3.7zM559 730c0 .4 1.4.7 3 .7 1.7 0 3-.3 3-.7 0-.3-1.3-.6-3-.6-1.6 0-3 .3-3 .6zM560.1 733.3c-.8 1.1-.5 1.3 1.9.9 1.6-.2 2.7-.8 2.4-1.3-.8-1.3-3-1.1-4.3.4zM647.4 733.8c.7.7 2 1 2.9.6 2.6-1 2-1.9-1.3-1.9-2.4 0-2.7.2-1.6 1.3zM561 737.1c0 .5.5.7 1 .4.6-.3 1-.8 1-1.1 0-.2-.4-.4-1-.4-.5 0-1 .5-1 1.1zM645.5 738c-.4.6.5 1 1.9 1 2.1 0 2.6.5 2.6 2.6 0 2.3-.3 2.6-3 2.2-2.2-.3-2.7-.1-2 .8 1.6 1.8 6 1.5 6-.5 0-.9.3-2.7.7-4 .4-1.6.3-2.2-.5-1.7-.6.3-1.3.2-1.7-.4-.8-1.3-3.2-1.3-4 0zM564.5 739c-.4.7-1.8.9-3.2.5-1.6-.4-2.2-.2-1.8.5.8 1.3 5.2 1.3 6-.1.4-.6.5-1.3.2-1.5-.3-.3-.8 0-1.2.6zM562.4 743.4c-1 .8-1.7 1.7-1.4 1.9.3.3 1.4-.1 2.4-.9 1.1-.7 1.7-1.6 1.5-1.9-.3-.3-1.4.2-2.5.9zM566.4 746.9c-.5.5-1.8 1.1-2.9 1.4-1.5.4-1.4.5.7.6 1.5 0 3-.4 3.3-1 .9-1.4.1-2.1-1.1-1zM644.2 747.3c2 2 5.1 3 4.6 1.5-.3-.7-1-1.3-1.5-1.3-.6 0-1.5-.3-1.9-.8-.4-.4-1.1-.7-1.6-.7s-.3.6.4 1.3zM565 752.1c-4.3 2.6-4.5 2.8-3.8 3.4.5.5 7-3.3 8.7-5.1 1.2-1.2-1.8-.1-4.9 1.7zM568.8 757.8c-2.1 1.3-3.8 2.9-3.8 3.4s1.2.1 2.8-1c1.5-1 3.5-2.4 4.6-2.9 1-.6 1.5-1.3 1-1.5-.5-.3-2.6.6-4.6 2zM636.5 760c1.8 2 1.7 2-1.8 2-4.5 0-5 1.5-.6 1.6 1.7.1 3.5.7 4 1.5.7 1.1.9 1 .9-.5 0-1.8.1-1.8 2-.1 3.4 3.1 2.2.1-1.3-3.3-3.6-3.5-6.1-4.4-3.2-1.2zM576.8 761.7c.7.3 1.6.2 1.9-.1.4-.3-.2-.6-1.3-.5-1.1 0-1.4.3-.6.6zM578 765.5c-1.3 1.4-2 2.5-1.6 2.5 1.1 0 5-3.9 4.4-4.5-.2-.3-1.5.6-2.8 2zM582 766.8c-3.5 3.4-3.5 3.5-.4 1.4 3.3-2.3 6.2-5.3 4.8-5.1-.5.1-2.5 1.7-4.4 3.7zM627 766.7c.1 1.2 5 4.6 5 3.5 0-.6-1.1-1.7-2.5-2.6-1.4-.9-2.5-1.3-2.5-.9zM586 770c-.8 1.4-.8 2.6 0 4 1.5 2.7 1.6 2.6 1.5-2 0-2.2-.1-4-.2-4s-.7.9-1.3 2zM590.6 769.8c.2.2-.1 1.3-.7 2.3-.6 1.1-.6 1.9 0 1.9 1.3 0 2.3-3.2 1.3-4-.5-.4-.7-.5-.6-.2zM622.3 771.4c.7 1.5 1.6 2.1 2.1 1.6.6-.6.4-1.5-.4-2.5-1.9-2.3-2.9-1.8-1.7.9zM593 771.1c0 .5.5.7 1 .4.6-.3 1-.8 1-1.1 0-.2-.4-.4-1-.4-.5 0-1 .5-1 1.1zM618.1 772.1c-.1 1.7.5 2.9 1.5 3.3 1.3.5 1.4.3.6-.6-.5-.7-1.2-2.2-1.5-3.3-.4-1.6-.5-1.4-.6.6zM596.2 773.9c-.6 1.7-.7 3.1-.3 3.1 1 0 2.5-5 1.8-5.7-.3-.2-.9 1-1.5 2.6zM614.9 774.2c.4 2.8.6 2.9.9.9.2-1.3 0-2.7-.5-3.2-.6-.6-.7.3-.4 2.3zM626.5 772c.3.5.8 1 1.1 1 .2 0 .4-.5.4-1 0-.6-.5-1-1.1-1-.5 0-.7.4-.4 1zM603.6 774.6c-1 1.4-1.6 2.8-1.3 3 .2.3 1.2-.7 2.1-2.2 1-1.4 1.6-2.8 1.3-3-.2-.3-1.2.7-2.1 2.2zM608.3 774.4c.1 1.6.9 3.2 1.7 3.4 1.2.4 1.3.2.4-.9-.7-.8-1.4-2.3-1.7-3.4-.4-1.3-.5-.9-.4.9zM584.5 777c.3.5.8 1 1.1 1 .2 0 .4-.5.4-1 0-.6-.5-1-1.1-1-.5 0-.7.4-.4 1zM588.3 66c.3 1.1.1 2-.4 2s-.9.9-.9 2 .5 2 1.1 2c.5 0 .7-.5.4-1-.3-.6-.3-1.6.1-2.2 1.2-1.8 1.2-4.8.1-4.8-.5 0-.7.9-.4 2zM591.5 65c.3.5 1.1 1 1.6 1 .6 0 .7-.5.4-1-.3-.6-1.1-1-1.6-1-.6 0-.7.4-.4 1zM596.7 66.6c.7.3.9 1.8.6 4-.4 2.2-.2 3.4.6 3.4.7 0 1.1-.6 1-1.3-.4-3 .2-4.7 1.6-4.7.8 0 1.5-.5 1.5-1 0-.6-1.5-1-3.2-.9-1.8 0-2.8.3-2.1.5zM604.1 68.9c-1.2 1.2-1.7 2.7-1.4 4 .8 3.3 2 3.4 1.5.2-.3-2.1.2-3.3 1.9-4.5 1.3-.9 1.8-1.6 1.1-1.6-.6 0-2.1.9-3.1 1.9zM608.5 72.7c-2 2.5-2.4 3.5-1.2 3 .9-.3 1.7-.2 1.7.3 0 .6.8 1 1.8 1 1.4 0 1.4-.2.3-.9-1.2-.8-1.3-1.4-.3-3.7 1.9-4 .8-3.9-2.3.3zM591 71.5c-.8.9-.8 1.5-.2 1.5 1.2 0 2.6-1.9 1.9-2.6-.2-.2-1 .2-1.7 1.1zM630.8 70.5c-1.3 2.2-3.6 11.5-2.8 11.5 1.1 0 4.3-9.6 3.8-11.2-.3-.7-.7-.8-1-.3zM367.5 77c.9 4.1 1.3 5 2.4 5 .9 0-1-6.5-2.3-7.7-.5-.5-.5.8-.1 2.7zM359.6 76.9c-.4.6-1.3.8-2.1.4-1.9-.7-1.9-.4 0 4.1 1.9 4.6 2.5 4.6 2.2 0-.3-5.6 1.9-5.2 3.8.5.9 2.8 2 5.1 2.5 5.1s.1-2.4-.9-5.3c-1.7-4.9-4.1-7.1-5.5-4.8zM343.6 77.8c-.6.6 4.9 6.2 6.1 6.2.4 0 1.4.7 2.4 1.6 1 .9 2.3 1.4 2.9 1.2.6-.2-1.5-2.4-4.8-5s-6.3-4.4-6.6-4zM639.2 78.6c-2.5 1.8-2.7 6.4-.4 7.2 1.1.3 1.2 0 .3-1.6-.8-1.6-.6-2.5 1-4.6 2.4-3 2.2-3.2-.9-1zM643.3 82.8c-2 2.8-2 2.9-.2 4 1 .7 2.2 1.2 2.6 1.2.5 0 .1-.5-.7-1-1.3-.8-1.3-1.3.3-4 2.3-3.8.8-4-2-.2zM649 83.6c-.6 1.6-1.2 3.4-1.5 4.1-.2.6.3 1.4 1.1 1.7 2.4.9 2.9.7 1.7-.5-.8-.8-.8-2-.1-4.1.6-1.6.8-3.2.4-3.5-.3-.3-1 .7-1.6 2.3zM654.1 86.1c-1.3 3.9-1.4 4.9-.2 4.9.8 0 2.4-7.1 1.7-7.7-.2-.2-.9 1-1.5 2.8zM657.9 88.7c-.6 2.1-1.6 4.4-2.2 5.1-.5.7-.7 1.5-.4 1.9.4.3.9-.2 1.3-1.1.3-.9 1.2-1.6 2-1.6.7 0 1.1-.6.8-1.3-.3-.8 0-2.6.5-4 .6-1.5.7-2.7.2-2.7-.5 0-1.5 1.7-2.2 3.7zM663.1 90.1c-1.3 3.8-1.4 4.9-.3 4.9.4 0 1.3-1.8 1.9-4 1.2-4.7 0-5.4-1.6-.9zM325 89.4c0 1.6 3.2 7.6 4.1 7.6.6 0 .9-.3.7-.8-.3-.4-1.1-2.2-1.8-4-.8-1.7-1.8-3.2-2.2-3.2-.4 0-.8.2-.8.4zM667 90.4c-2 2.6-.8 6.1 2.3 6.4 1.5.2 2.7.8 2.7 1.3s.4.9 1 .9c.5 0 .7-.7.3-1.5-.3-.9.3-2.5 1.2-3.5 1-1.1 1.5-2.3 1.1-2.8-.4-.4-1.7.5-2.8 2.1-2 2.8-5.8 3.7-5.8 1.4 0-.7.7-2.3 1.6-3.5 1.7-2.4.4-3.1-1.6-.8zM646 91c0 .5.5 1 1.1 1 .5 0 .7-.5.4-1-.3-.6-.8-1-1.1-1-.2 0-.4.4-.4 1zM318.5 92c-.4.6 0 1 .8 1s2.4 2.3 3.6 5.2c1.2 2.8 2.4 4.9 2.7 4.6.3-.4-.4-2.9-1.6-5.6-2.1-5-4.4-7-5.5-5.2zM308 92.5c0 .3 1.1 2.7 2.5 5.4 1.3 2.7 2.1 5.1 1.8 5.5-.4.3-.2.6.4.6 2.2 0 2.1-1.4-.5-6.6-2.2-4.6-4.2-6.9-4.2-4.9zM316.2 96.7c1.5 3.4 2.8 5.1 2.8 3.5 0-1.8-2.2-6.2-3.1-6.2-.5 0-.3 1.2.3 2.7zM300 96.5c0 1.5 5.2 10.5 6 10.5.5 0-.2-2.5-1.7-5.5-2.3-4.7-4.3-7-4.3-5zM696 102.9c0 3-.5 5.1-1.2 5.4-1 .4-1 .6 0 .6.6.1 1.3 0 1.5-.2.1-.1 1.3.8 2.7 2 2.7 2.6 3.6 2.8 4.6 1.1.5-.8.2-.9-1-.5-1.9.7-3.6-2-1.9-3.2 1.7-1.1 2.3-4.1.9-4.1-.8 0-1.6.9-1.9 2-1 4-2.4 1.9-1.9-3 .3-3.3.1-5-.7-5-.7 0-1.1 1.9-1.1 4.9zM704.6 105.3c.3 1 .9 1.5 1.2 1.2.3-.3 0-1.1-.7-1.8-1-.9-1.1-.8-.5.6zM708.3 111.2c-3.1 2.2-4.2 3.8-2.5 3.8 1.2-.1 7.8-5.9 6.7-6-.6 0-2.5 1-4.2 2.2zM282.8 114.1c1.9 1.7 3.7 2.7 4 2.4.8-.8-4.7-5.5-6.3-5.5-.5 0 .5 1.4 2.3 3.1zM718.5 114c.3.5-.1 2.1-1 3.4-.9 1.4-1.3 3-.9 3.7.4.8 1.1-.1 1.8-2.2.8-2.4 1.7-3.3 2.9-3.1 2.1.4 2.3-1.4.1-2.2-2.3-.9-3.6-.7-2.9.4zM276 115.1c2.9 1.2 4.2 2.9 3.5 4.7-.3.7 0 1 .5.7 1.4-.8 1.3-3.8-.2-5.3-.7-.7-2.3-1.2-3.7-1.1h-2.6l2.5 1zM710.7 117.1c.7.7 1.5 1 1.8.7.3-.3-.2-.9-1.2-1.2-1.4-.6-1.5-.5-.6.5zM272 118.2c0 2.1 2.6 4.8 4.8 4.8 1.3 0 1.2-.3-.5-1.5-1.3-.9-2.7-2.3-3.2-3.3-1-1.6-1-1.6-1.1 0zM723.2 118.2c-.7.7-1.2 2.2-1.2 3.4 0 2.3 2.6 5.1 3.7 4.1.3-.4 1.2.1 1.9 1.1 1.2 1.5 1.3 1.5.8-.4-.4-1.5.1-2.7 1.7-3.8 1.3-.8 2-1.9 1.6-2.3-.4-.3-2.1.6-3.7 2.2-2.2 2.1-3.3 2.6-4.1 1.8-1.6-1.6-.1-5.3 2.4-6.3 2.1-.8 2.1-.9.2-.9-1.2-.1-2.6.4-3.3 1.1zM265.1 122.2c.1 1.3.5 3.4.9 4.8.7 2.1.8 1.9.9-1.7.1-2.3-.3-4.5-.9-4.8-.6-.3-1 .4-.9 1.7zM271.5 125c-.3.5-.1 1 .4 1 .6 0 1.1-.5 1.1-1 0-.6-.2-1-.4-1-.3 0-.8.4-1.1 1zM258 125.5c0 1.5 3.4 5.5 4.6 5.5 1 0 .8-.6-.6-2-1.1-1.1-2-2.5-2-3 0-.6-.4-1-1-1-.5 0-1 .2-1 .5zM251.1 129.1c-1.4 1.4-2.1 3-1.9 4.7.2 2.2.9 2.7 3.3 2.9 2.6.2 2.7.2.9-.6-3.2-1.4-3.9-3.1-2.1-4.9 1.9-1.9 4.4-.3 5 3.1.3 2.1.4 2.1 1.2.3.6-1.4.3-2.4-1.3-3.6-1.5-1.3-1.8-2-.9-2.9 2.1-2.1-1.8-1.2-4.2 1zM749.7 134.8c-3.3 4.6-3.3 4.9-1.6 6 1.4.9 1.7.9 1.3-.1-.2-.7.9-3.2 2.6-5.5 3.2-4.5 3.5-5.2 2.1-5.2-.5 0-2.5 2.2-4.4 4.8zM242.8 134.8c-1.6.9-2.8 2-2.8 2.4 0 1.3 2.8.9 3.3-.5.3-.7 1.2-.2 2.6 1.5 2.3 2.8 4.1 3.6 4.1 1.8 0-.6-.6-1-1.4-1-1.6 0-3.1-3.4-2.1-5 .9-1.5-.6-1.2-3.7.8zM753 136.4c0 .2.7.9 1.5 1.6.9.7 1.5.8 1.5.2 0-.5-.7-1.2-1.5-1.6-.8-.3-1.5-.4-1.5-.2zM243.8 141.7c.5 2.1.7 2.3 1 .9.2-1 0-2.2-.6-2.8-.6-.6-.7 0-.4 1.9zM759 140.1c.4 2.9-.1 4-2.2 4.9-1.8.7-1.9.9-.6.9 1 .1 2.3-.8 3-1.9.7-1.1 1.6-2 2-2 1.3 0 .9 2.3-.8 4.1-.9 1-1.3 2.3-.9 3 .5.7 1.3 0 2.1-2.1 1-2.3 1.9-3 3-2.6 2.8 1.1.9-1.8-2.5-3.8-2.5-1.4-3.2-1.5-3.1-.5zM227.5 141.1c-.3.5 1.2 1.6 3.5 2.5 2.2.9 4.5 2.5 5.1 3.5.5 1.1 1.4 1.7 2 1.4 1-.7-2-5.4-3.6-5.5-.5 0-2.2-.7-3.7-1.4-1.6-.9-3-1.1-3.3-.5zM765.6 147.6c-1.9 1.8-2.1 4-.4 5 .6.4.8.3.5-.3-1-1.6 1.8-4.7 3.7-4 2.4.9 2 4.6-.6 5.7-2.3 1-2.3 1 .2.7 1.8-.1 2.6-.9 2.8-2.5.3-1.9.6-2.1 1.8-1.1.9.7 1.4.8 1.4.1 0-1.2-5.3-5.2-6.8-5.2-.6 0-1.8.7-2.6 1.6zM775.1 155.6c-2 2.5-2.7 4.4-1.7 4.4.8 0 4.8-6.1 4.3-6.6-.2-.3-1.4.7-2.6 2.2zM785.6 154.3c.3 1 .9 1.5 1.2 1.2.3-.3 0-1.1-.7-1.8-1-.9-1.1-.8-.5.6zM215.8 158.6c2.5 1.8 2.9 5.2.6 6.1-.8.3-2.5-.4-3.9-1.7-1.4-1.3-2.8-2.1-3.1-1.7-.9.9 3.7 4.6 5.7 4.7 3.8.1 5.4-6.1 2-8-3-1.5-3.8-1.2-1.3.6zM779.7 160.6c-1.6.9-2.7 1.8-2.4 2 .5.5 7.7-2.4 7.7-3.1 0-.9-2.5-.4-5.3 1.1zM205.7 164.9c-.3 1.2.1 2.2.9 2.5.8.3 1.4 1.5 1.4 2.6 0 2.5.5 2.5 3.3-.1 1.5-1.4 1.7-1.8.5-1.4-1.2.5-2.1-.2-3.3-2.4-1.8-3.6-2.1-3.7-2.8-1.2zM788.2 165.6c-3.8 2.6-2.3 7.4 2.4 7.4 2.7 0 4.7-2.3 4.1-4.7-.3-1.5-.6-1.3-1.5.9-.7 1.7-1.9 2.8-3.1 2.8-3.1 0-3.5-1.9-1.2-5.1 2.5-3.3 2.4-3.5-.7-1.3zM781.5 167c.3.5 1.1 1 1.6 1 .6 0 .7-.5.4-1-.3-.6-1.1-1-1.6-1-.6 0-.7.4-.4 1zM201 168.8c0 2 3.3 5.2 5.3 5.1 2.2 0 2.2 0-.1-1-1.3-.5-2.6-1.8-2.9-2.9-.5-1.9-2.3-2.9-2.3-1.2zM192.5 169.9c-.4.8.7 2.8 3.1 5.4 2.2 2.3 4 4.3 4.1 4.5.1.2.6.1 1.2-.2.6-.4-.4-2-2.5-3.8-2-1.8-3.9-4.1-4.3-5.2-.6-1.4-1-1.6-1.6-.7zM798.1 170.1c-.1.4-.8 2.3-1.6 4.3s-1.1 3.6-.6 3.6c1.2 0 3.4-5.6 2.8-7.2-.3-.7-.6-1-.6-.7zM802 176.1c0 .5.5.7 1 .4.6-.3 1-.8 1-1.1 0-.2-.4-.4-1-.4-.5 0-1 .5-1 1.1zM178.7 192c.3 1.1.9 2.3 1.4 2.6 1.4.8 1.1 4.4-.3 4.4-1.8 0-3.3-1.2-4.6-3.5-1.4-2.5-1.6-.1-.2 2.6 1.4 2.6 6 2.6 6.7-.1.3-1.1 1.2-2 1.9-2 .8 0 1.4-.4 1.4-1 0-.5-.7-.7-1.5-.4-.9.4-1.9-.3-2.6-2-1.4-3.1-2.9-3.5-2.2-.6zM816.5 191.3c-3.3.5-6.2 1.1-6.4 1.3-.7.6 6.1 7.4 7.3 7.4.6 0-.2-1.1-1.8-2.3-3.2-2.6-2.8-4.7.8-4.7 3.8 0 8.6-1.2 8.6-2.1 0-1-.3-1-8.5.4zM821 198.7c-1.8 1.9-2.1 2.8-1.3 4.1.5 1 1.9 1.8 2.9 1.9 1.4.2 1.3 0-.4-.7-2.6-1.1-2.5-3.7.1-3.2 1.1.2 1.5-.2 1.1-1.3-.4-1 0-1.5 1-1.5.9 0 1.6.7 1.6 1.5s.5 1.5 1 1.5c1.4 0-.5-3.6-2.3-4.3-.7-.3-2.4.6-3.7 2zM172.2 201.6c1.7 1.8 3.2 2.5 4.4 2 1.4-.5 1-1-2.2-2.6-5-2.6-5.4-2.5-2.2.6zM167 203.5c0 .9 7.5 7.4 8.5 7.4.6 0 .2-.6-.8-1.3-1.2-.9-1.4-1.6-.8-2.1 1.8-1 1.2-2.4-.7-1.8-1 .2-2.4-.3-3.1-1.1-1.3-1.5-3.1-2.2-3.1-1.1zM829.4 203.9c.3.4-.3 1.6-1.4 2.6-1.1 1-2 2.5-2 3.3 0 .9.8.5 2.1-1.2 1.6-2 2.6-2.5 4.3-2 2.1.7 2.1.6.2-1.5-1.8-2-4.3-3-3.2-1.2zM165 207c.6 1.1 1.3 2 1.6 2 .2 0 0-.9-.6-2s-1.3-2-1.6-2c-.2 0 0 .9.6 2zM832.2 210.6c-3 2.1-2.8 4.4.8 7.7 1.7 1.6 2.7 2.2 2.4 1.3-.4-1 .3-1.9 2-2.7 2.9-1.4 3.3-2.4 1.2-3.2-.8-.3-1.7.1-2 .9-.3.8-1.7 1.4-3.1 1.4-3.3 0-3.1-3 .3-4.5 1.2-.5 2.2-1.3 2.2-1.7 0-1.2-1.4-.9-3.8.8zM165.5 211c.3.5 1.1 1 1.6 1 .6 0 .7-.5.4-1-.3-.6-1.1-1-1.6-1-.6 0-.7.4-.4 1zM157 213.7c0 1.1 6.7 5.3 7.4 4.6.3-.3-1.1-1.6-3-2.9-3.7-2.6-4.4-2.8-4.4-1.7zM168.6 214.4c.3.9 1.1 1.6 1.6 1.6 1.3 0 .5-2.3-1-2.8-.7-.2-1 .2-.6 1.2zM146.4 220.1c-.2.4 1.4.9 3.6 1.1 2.2.2 4 .1 4-.3 0-.9-7-1.7-7.6-.8zM157.3 224c-3.4 4.2-2.7 6.1.7 2 1.6-1.9 3-3.8 3-4.3 0-1.5-1.6-.5-3.7 2.3zM851 230.6c-2.5 2-4.7 3.7-4.8 3.9-.2.2.6 1.7 1.9 3.4 1.2 1.7 2.5 2.9 2.7 2.6.3-.3-.3-1.4-1.3-2.5-1.4-1.6-1.5-2.2-.5-3.5.7-.8 1.6-1.5 2.1-1.5s1.8-.9 2.9-2c1.2-1.2 2.6-1.8 3.3-1.3.7.4.7 0-.2-1-.7-.9-1.4-1.7-1.5-1.6 0 0-2.1 1.6-4.6 3.5z"/>
  <path d="M853.7 235.1c.7.7 1.5 1 1.8.7.3-.3-.2-.9-1.2-1.2-1.4-.6-1.5-.5-.6.5zM137.1 239.4c-.9 1.1-.6 1.2 1.5.8 1.9-.3 3.1.1 4.1 1.3 1 1.5 1.3 1.5 1.3.4 0-3.5-4.7-5.2-6.9-2.5zM858 239.2c0 1-.9 2.3-2 3-1.1.7-2 1.9-2 2.7 0 1 .7.8 2.5-.9 2-1.9 2.7-2.1 4-1 2.2 1.8 1.9-.3-.5-3.1-1.6-2-1.9-2.1-2-.7zM136 243.8c0 3 6.3 4.4 7.4 1.6.5-1.4.4-1.5-.9-.4-1.2 1-2 .9-4-.4-1.4-.9-2.5-1.3-2.5-.8zM860.4 246c-3.2 1.2-3.9 4.2-1.5 6.2 1.2.9 2.1 2.4 2.2 3.5 0 1.7.1 1.7.8-.1.4-1 2-2.4 3.7-3.2 2.8-1.3 2.8-1.3-1.7-.8-2.7.4-4.9.2-5.3-.4-1-1.7 2.5-4.4 5.1-3.9 2.7.5 3 .1.6-1.1-1-.6-2.7-.6-3.9-.2zM131 248.7c0 1.4.2 1.5.9.4s1.8-.7 5.4 1.7c2.4 1.7 4.7 2.8 5.1 2.5.8-.9-7.5-6.3-9.6-6.3-1.1 0-1.8.7-1.8 1.7zM131.5 253.4c2.2 1.4 4.2 2.3 4.4 2 .8-.7-4.4-4.3-6.4-4.4-1.4 0-.9.7 2 2.4zM123.4 254.5c-1.4 1.1-1.5 1.4-.3.9 1.1-.3 2.3.3 3.3 1.8 1.6 2.2 1.6 2.2 1.6.1 0-3.2-2.3-4.6-4.6-2.8zM120 257.9c0 1.1 8.6 7.1 10.2 7.1 1.6 0 .7-1.7-1.4-2.8-1.3-.6-3.8-2.1-5.5-3.2-1.8-1.2-3.3-1.7-3.3-1.1zM877.3 270.5c-6.4 3.9-5.8 5.6.6 1.9 5.6-3.2 6.5-4 5.4-4.6-.4-.3-3.2.9-6 2.7zM881.2 278c-1.2 1-2.8 2-3.5 2.3-.6.2-.9.7-.6 1.1.9 1 6.9-2.7 6.9-4.2s0-1.5-2.8.8zM885 281.2c0 .7-2 2.4-4.5 3.8s-4.5 2.8-4.5 3.2c0 1.2.6 1 5.4-1.9 4.7-2.8 6.2-4.8 4.6-5.8-.6-.4-1 0-1 .7zM112.8 284c3.4 2.1 5.2 2.5 5.2 1.2 0-.8-5.7-3.2-7.6-3.2-.5 0 .6.9 2.4 2zM104.2 285c.6 1.8 10.8 7.2 10.8 5.7 0-.7-2.5-2.5-5.6-4-3.1-1.5-5.4-2.3-5.2-1.7zM886.4 286.4c-.3.9-1.5 1.6-2.5 1.6-1.1 0-1.9.7-1.9 1.7 0 1.5.2 1.5.9.4.5-.8 1.6-1.1 2.5-.8.9.4 1.5.1 1.3-.6-.1-.7.5-1.2 1.3-1.2s1.4.8 1.4 1.7c-.1 1 .2 1.8.7 1.8 1.6 0 1-2.6-1.1-4.5-1.8-1.6-2-1.6-2.6-.1zM100 293c0 .8 9 6 10.5 6 2 0-.3-2-5-4.3-3-1.5-5.5-2.2-5.5-1.7zM883.5 293c.3.5 1.1 1 1.6 1 .6 0 .7-.5.4-1-.3-.6-1.1-1-1.6-1-.6 0-.7.4-.4 1zM891.6 294.4c.3.8-.4 1.6-1.9 2-2.6.6-4.2 3.1-2.7 4.1.6.4 1-.1 1-.9 0-2 3.7-3.1 5.5-1.6 1.8 1.5 1.9.9.3-2.5-1.1-2.6-3.2-3.6-2.2-1.1zM891.2 301.6c-1.2.8-2.2 2-2.2 2.6 0 .6.9.3 2-.7 1.2-1.1 2.9-1.6 4.5-1.3 2 .4 2.3.3 1.4-.8-1.5-1.8-2.9-1.8-5.7.2zM891.5 308.7c.8 1.7 1.1 1.9 1.8.7.4-.8 1.9-1.4 3.2-1.4 1.4 0 2.5-.4 2.5-1 0-.5-1.9-.8-4.3-.7-4 .2-4.2.3-3.2 2.4zM93 317c0 .5 1.8 1 4 1s4-.5 4-1c0-.6-1.8-1-4-1s-4 .4-4 1zM91.4 321.5c-1.8 1.4-1.8 1.4.2.9 1.2-.3 3.1-.1 4.3.5 1.3.8 2.1.8 2.1.2 0-.9-3.1-3.1-4.2-3.1-.2 0-1.3.7-2.4 1.5zM90 326.9c0 2.4 6.5 2.8 7.4.5.5-1.4.4-1.5-.8-.5-.9.8-2.1.8-4 .1-1.4-.5-2.6-.6-2.6-.1zM908.5 328c-2.2 1-4.8 1.9-5.8 1.9-1.1.1-1.7.7-1.4 1.3.5 1.6.9 1.5 7-1.1 2.6-1.1 4.7-2.5 4.7-3.1 0-.5-.1-1-.2-.9-.2 0-2.1.9-4.3 1.9zM87.8 330.1c-1 .5-1.8 1.5-1.8 2.1 0 .9.3.9 1.2 0 1.7-1.7 3.8-1.5 6 .5 1.8 1.6 1.8 1.6 1.2 0-.3-1-1.5-2.2-2.5-2.7-2.1-1.2-2-1.2-4.1.1zM905.8 334.1c-1 .5-1.7 2-1.7 3.2.1 1.8.2 1.8.6.4.3-1 1.8-2 3.5-2.4 2.1-.4 2.6-.8 1.6-1.4-1.6-1.1-1.9-1.1-4 .2zM86 335.5c0 .8 8.1 4.4 9.9 4.5 1.1 0 1-.5-.4-1.8-1.1-1-2.6-1.8-3.5-1.8-.8 0-2.5-.4-3.7-.8-1.3-.4-2.3-.5-2.3-.1zM911.6 337.7c-.8 2.4-3.9 3.9-5.7 2.7-.8-.4-.9-.3-.5.4 1.2 2 5.4 1.4 6.6-.9.6-1.1.9-2.5.7-3.2-.2-.7-.7-.2-1.1 1zM84 339.6c0 .6 2 3.3 4.5 6s4.5 4.3 4.5 3.7c0-1.5-8.9-11.2-9-9.7zM913 343.1c0 .9-1.1 2-2.5 2.3-1.4.4-2.5 1.4-2.5 2.3 0 1.5.1 1.5 1.8 0 2.2-2 4.8-2.2 5.5-.5.4.9.6.8.6-.3.1-.8-.6-2.4-1.4-3.5-1.2-1.6-1.4-1.7-1.5-.3zM81.5 345c.3.5.8 1 1.1 1 .2 0 .4-.5.4-1 0-.6-.5-1-1.1-1-.5 0-.7.4-.4 1zM80 349.7c0 1.3 6.9 3.3 7.5 2.3.3-.4-.6-1.1-1.9-1.4-1.3-.3-3.1-.9-4-1.2-.9-.3-1.6-.2-1.6.3zM911.2 351.2c-.7.7-1.2 1.9-1.1 2.7 0 1.1.2 1.2.6.3.9-2.3 4.1-3.4 6.6-2.1 2 1.1 2.1 1.1.8-.4-1.6-2-5.2-2.2-6.9-.5zM78.5 354.7c.6.5 2.2 1.4 3.7 2.1 2.1.9 2.9.8 3.8-.3.9-1.1.8-1.4-.7-1.3-1 0-3.1-.3-4.8-.7-1.9-.5-2.6-.4-2 .2zM911.8 358.6c.4 2.2.6 2.4 1.4 1 .5-.9 2.2-1.6 3.9-1.6 1.8 0 2.8-.4 2.4-1-.3-.6-2.3-1-4.4-1-3.6 0-3.8.2-3.3 2.6zM77 359.8c0 1 10 4.5 10.8 3.8.3-.3-.2-.6-1.1-.6-1.1 0-1.7-.8-1.7-2.3 0-1.5-.3-1.8-.8-.9-.7 1-1.5 1-3.6.2-3.3-1.2-3.6-1.2-3.6-.2zM73.4 363c-3.4 1.4-3.9 3-.7 2.1 3.6-1.1 7.1.3 8.3 3.1.8 2.1.9 2.1.9.3.1-2.5-.8-3.9-3.6-5.4-2.5-1.3-2.1-1.2-4.9-.1zM70 370.3c0 3.4 6.5 5.6 9.5 3.2 1.9-1.5 1.9-1.5-.8-.9-2.1.5-3.7.1-5.8-1.5-2.1-1.6-2.9-1.8-2.9-.8zM922.8 374.8c-5.9 1.6-8.2 3.9-2.8 2.7 3.5-.8 3.7 0 1 3.5-2 2.5-2.6 5-1.2 5 .8 0 4.8-8.1 4.5-9.1-.1-.4.9-1 2.2-1.3 1.4-.4 2.5-1.1 2.5-1.6 0-.6-.1-1-.2-.9-.2 0-2.9.8-6 1.7z"/>
  <path d="M927.4 379.4c1.1.9 2.4 1.6 3 1.6 1.2 0 .7-.5-2.4-1.9-2.4-1.1-2.4-1.1-.6.3zM922.3 387.7c-.7.2-1.3 1.1-1.3 2 0 1.2.2 1.2 1.6-.1 1.9-1.9 4.5-2.1 6.4-.4 1.2 1.1 1.2 1 .1-.5-1.3-1.6-4.2-2.1-6.8-1zM67.5 391.7c1.5 1.5 7.3 2.4 8 1.3.3-.6 0-1-.8-1s-3-.3-4.8-.6c-2.3-.5-3.1-.3-2.4.3zM922 393.4c.4.4.6 1.6.3 2.5-.5 1.3-.3 1.4.8.3.7-.6 2.6-1.2 4.1-1.2 4.5 0 3.2-1.8-1.7-2.2-2.5-.2-4 .1-3.5.6zM62.6 395.1c-1.4 4.2-2.3 8.8-1.8 9.3.9 1 2.4.7 1.7-.4-.3-.5-.1-2.8.5-5.1 1-3.8.7-7-.4-3.8zM72.7 398.9c-.3 1.6-.9 4-1.3 5.5-.3 1.4-.2 2.6.3 2.6 1.1 0 3.2-9.9 2.3-10.5-.4-.3-1 .8-1.3 2.4zM66.6 400.2c-.6 2.8-.2 4.8.8 3.7.8-1 1.5-6.9.7-6.9-.5 0-1.1 1.4-1.5 3.2zM930 399.8c0 2.7-.4 3.2-2.4 3.2-2.5 0-4.3 1.6-3.1 2.8.3.3 1 0 1.5-.7.5-.9 1.8-1.2 3.8-.8 2.9.6 3 .6 2.2-2.9-1.1-4.8-2-5.5-2-1.6z"/>
  <path d="M923 400.2c0 .4 1.4.8 3 .8 1.7 0 3-.2 3-.4s-1.3-.6-3-.8c-1.6-.3-3-.1-3 .4zM931.4 408.4c-.8.8-.7 1.4.5 2.3 1.3.9 1 1.2-2.2 1.8-2.1.4-3.7 1.3-3.7 2.1 0 1 .5 1 2.7-.1 2-1 3.1-1.1 4-.3 1 .8 1.3.3 1.3-2.5 0-3.9-.9-5.1-2.6-3.3zM926 410c.8.5 2 1 2.5 1 .6 0 .3-.5-.5-1s-1.9-1-2.5-1c-.5 0-.3.5.5 1zM928.8 418.1c-1 .5-1.8 1.5-1.8 2.1 0 .9.3.9 1.2 0 1.5-1.5 6.8-1.6 6.8 0 0 .6.3.8.6.5 1-1-1.6-3.7-3.5-3.7-.9 0-2.4.5-3.3 1.1zM60.9 423.7c-1.3 1.6-1.2 1.7.3.4 1.1-.8 2.8-1.1 4.4-.7 1.7.5 2.3.3 1.9-.4-1-1.6-5.1-1.2-6.6.7zM931.5 422.9c-1.9.4-3.1 1.3-3.3 2.5-.3 1.7-.2 1.8 1.2.7.9-.7 2.7-1.1 4.1-.9 1.4.3 2.5.1 2.5-.3 0-.5-.5-.9-1.1-.9-.5 0-.7-.5-.4-1 .3-.6.5-.9.3-.9-.2.1-1.6.4-3.3.8zM67.7 427.1c-.5 1.9-1 2.1-4.1 1.5-2-.4-3.7-.2-4.1.4-.4.6 1 1 3.9 1 3.6 0 4.6-.4 5.1-2.1.4-1.1.5-2.3.2-2.5-.2-.3-.7.5-1 1.7zM55 433.2c0 .4 1.6.8 3.5.8s3.5-.2 3.5-.4-1.6-.6-3.5-.8c-1.9-.2-3.5 0-3.5.4zM63 434.7c0 .5-2 2.1-4.5 3.6-4.1 2.6-6.3 5.6-3.2 4.4.7-.2 3.4-.1 6 .3s4.7.3 4.7-.2c0-.4-1.8-.8-4-.8s-4-.3-4-.8c0-.4 2-2 4.5-3.5 5-3.2 5.4-3.7 2.5-3.7-1.1 0-2 .3-2 .7zM931 445c0 .5.7.7 1.5.4.8-.4 1.5-.8 1.5-1 0-.2-.7-.4-1.5-.4s-1.5.4-1.5 1zM936.3 449.4c-2.3 1.2-4.2 2.7-4.3 3.4 0 1.3 5.5-1.1 9.5-4.2 2.9-2.2 0-1.8-5.2.8zM932.7 457.5c-.5 1.2-.2 1.2 1.9.3 1.9-.9 3-.9 4.4 0 1.6 1 1.8.9 1.4-.3-.8-2-7-2-7.7 0zM932.7 461.4c.4.6.6 2 .5 3.1-.2 1.6-.1 1.7.7.5.7-1 2.2-1.4 4.3-1.1 4.1.4 3.5-.3-1.9-2.2-2.8-.9-4-1.1-3.6-.3zM59 461.7c1.4.3 3.2 1 4 1.6 1.3 1.1 1.3 1 .1-.6-.7-.9-2.5-1.6-4-1.6l-2.6.2 2.5.4zM62.6 466.7c-.4.5-2 .8-3.4.8-1.5 0-2.8.4-2.9 1-.1.5 1.2.8 3 .7 3.2-.4 5.5-1.7 4.6-2.7-.3-.3-.9-.2-1.3.2zM929 469c0 .5.4 1 .9 1 .6 0 1.3-.5 1.6-1 .3-.6-.1-1-.9-1-.9 0-1.6.4-1.6 1zM933.1 470.2c0 1.3.3 1.7.6 1 .2-.6 1.4-1.2 2.6-1.2 1.2 0 2.9-.5 3.7-1 1.1-.7.4-1-2.7-1-3.8 0-4.3.3-4.2 2.2zM51.4 473.2c-.3.4.2 1 1 1.5 1.8 1 11.6.4 11.6-.7 0-1-12-1.8-12.6-.8zM933.5 474.9c-.4.9 0 1.1 1.1.7.8-.3 2.7-.6 4-.6 1.3 0 2.4-.3 2.4-.8 0-1.3-7-.7-7.5.7zM58.4 478.2c1.8 1 1.5 1.3-2.4 2.8-4.8 1.9-6.4 4-3.1 4 1.2 0 2.1-.4 2.1-.8 0-.5 1.9-1.7 4.3-2.6l4.2-1.7-2.5-1.4c-1.4-.8-2.9-1.4-3.5-1.4-.5 0-.1.5.9 1.1zM930.2 479.5c.8.8 16.7 1.1 16.1.2-.2-.4-4.1-.7-8.5-.7-4.5 0-7.9.2-7.6.5zM941 482.7c0 1.9-5 2.9-6.1 1.2-.5-.8-.9-.9-.9-.3 0 .6.7 1.7 1.6 2.5 1.2 1 2 1 3.5 0 1.1-.6 2.8-.9 3.8-.6 1.1.3 2.4-.2 3.2-1.1 1.2-1.5 1.1-1.6-1-.9-1.6.5-2.6.3-3.2-.6-.6-1-.9-1-.9-.2zM60.5 485c-1.9.8-1.9.9.3.9 1.2.1 2.2-.4 2.2-.9 0-.6-.1-1-.2-.9-.2 0-1.2.4-2.3.9zM934.7 489.7c-1.5 1.4-.6 5.3 1.4 6.3 2.7 1.5 4.2.8 7-3.2 2-2.8 2-3.1.4-1.8-1.1.8-2.4 2.1-2.8 2.7-1.3 2.1-5.7 1.6-5.7-.6s2.2-3.3 4.7-2.4c1.1.4 1.4.3.9-.5-.8-1.3-4.8-1.6-5.9-.5zM946.1 491.2c0 .9-.4 2.5-.7 3.5-.5 1.4-.4 1.5.5.7.7-.7 1.1-2.2.8-3.5-.2-1.3-.5-1.6-.6-.7zM935.8 499.1c-1.2.6-1.6 2.1-1.5 4.9.1 2.8.4 3.6 1.3 2.9.7-.6 2.1-.6 3.8.1 1.5.5 2.6.6 2.6.1s-1.6-1.5-3.6-2.1c-2.4-.8-3.4-1.7-3.2-2.8.5-2.4 4.9-2.8 6.5-.6.7 1 1.3 1.3 1.3.7 0-1.5-2.8-4.3-4.3-4.3-.7 0-2 .5-2.9 1.1zM62 505.1c0 .8-1.2 1-3.5.6-4.4-.7-4.6 1-.3 2.1s5.1 4.2 1.1 4.2c-1.6 0-3.5-.6-4.2-1.3-1.1-1-1.1-.8-.2 1 1.2 2.3 4.4 3 6.8 1.5 1-.6 1.5-9.2.6-9.2-.2 0-.3.5-.3 1.1zM57.2 515.7c-.7.3-2 1.9-2.8 3.6l-1.6 3.2 2.7-2.8c2.1-2.2 3.4-2.8 5.4-2.4 2.4.5 2.4.4.6-.9-2-1.5-2.3-1.5-4.3-.7zM50.5 518c-.3.5-.1 1 .4 1 .6 0 1.1-.5 1.1-1 0-.6-.2-1-.4-1-.3 0-.8.4-1.1 1zM60.7 521.1c-.9.5-2.2.7-2.7.4-.6-.3-1-.1-1 .4 0 1.6 4.6 1.3 6-.4 1.4-1.7.3-1.9-2.3-.4zM934.3 521.7c.9.2 2.3.2 3 0 .6-.3-.1-.5-1.8-.5-1.6 0-2.2.2-1.2.5zM940.9 522.9c1 .6.3 1.2-2.5 2.1-5.4 1.8-5.9 2.1-3.9 3.3 1.2.6 2 .6 2.4-.2.4-.6 2.4-1.7 4.6-2.4 5-1.8 5.7-3.7 1.3-3.7-2.2 0-2.9.3-1.9.9zM57.7 526.4c-1 1.1-1.7 1.2-2.5.4-.8-.8-1.5-.8-2.7.2-2 1.7-1.9 4.7.3 5.8 2.2 1 15.2.3 15.2-.9 0-.5-.9-.9-2-.9-1.3 0-2-.7-2-1.8 0-3.7-3.7-5.4-6.3-2.8zm5.1 2.8c-.3 2-1 2.3-5.5 2.6-4.3.2-5.3 0-5.3-1.3 0-2 3-3.2 4-1.6.5 1 .9.9 1.3-.3.4-.9 1.8-1.6 3.2-1.6 2.2 0 2.6.4 2.3 2.2zM941 531.9c0 .3-1.8.5-4 .3-2.5-.3-4 0-4 .7 0 .6 1.9 1.1 4.4 1.1 2.4 0 5.1.3 6 .6 1 .4 1.6.1 1.6-.9 0-.8-.9-1.7-2-2-1.1-.3-2-.2-2 .2zM62.4 536c-.5.4-2.2 1-3.9 1.3-2.4.3-2.2.4 1.2.6 2.3 0 4.4-.3 4.8-.8.7-1.3-1-2.2-2.1-1.1zM936 537.9c-2.7.5-3.6 1.2-3.8 2.9-.6 4.1 4.4 7.2 6.4 4 .4-.7.3-.8-.5-.4-2.1 1.3-5.2-.4-4.9-2.7.2-1.7 1.1-2.3 4.1-2.5 2-.2 3.7-.7 3.7-1.3 0-.5-.3-.8-.7-.8-.5.1-2.4.4-4.3.8zM63.8 540.2c-.5 1.2-1.8 1.8-3.8 1.8-1.6 0-3 .5-3 1.1 0 .8 1.2 1 3.6.6 4.3-.7 4.7-1 4.2-3.4-.3-1.7-.4-1.7-1-.1zM66.8 542.7c.7.3 1.6.2 1.9-.1.4-.3-.2-.6-1.3-.5-1.1 0-1.4.3-.6.6zM64.4 547.1c-.4.7-2.1.9-4.3.6-3.3-.6-3.4-.5-1.7.8 1.1.8 3 1.5 4.3 1.5 1.6 0 2.3.6 2.3 2 0 2-1.3 2.5-5.4 2-1.1-.1-1.5.3-1.2.9.8 1.2 3.6 1.4 6 .5 1.8-.7 2.2-4.9.6-5.9-.8-.5-.7-1.1.1-2.1.6-.8.9-1.4.6-1.4-.3 0-.9.5-1.3 1.1zM61.3 560.5c-4.9 2.8-6.5 4.5-4.3 4.5.5 0 2.5-1.1 4.5-2.4 2-1.4 4.1-2.6 4.7-2.8.6-.2.9-.8.7-1.4-.2-.5-2.7.4-5.6 2.1zM929 564c0 .6.3.9.8.7.4-.3 2.5-.2 4.7.2l4 .7-5.2 3.3c-2.9 1.8-5.3 3.5-5.3 3.7 0 .2 1.5.4 3.3.4 1.8 0 2.7-.4 2-.8-.8-.5.5-1.7 3.8-3.5 2.7-1.6 4.9-3.2 4.9-3.6 0-.4-1.7-.8-3.7-.9-2.1-.1-5-.4-6.5-.8-1.8-.3-2.8-.1-2.8.6zM65 566.4c0 .2.7.6 1.5 1 .8.3 1.5.1 1.5-.4 0-.6-.7-1-1.5-1s-1.5.2-1.5.4zM935 573.4c0 .2 1.1.6 2.5.8 1.4.3 2.5.1 2.5-.3 0-.5-1.1-.9-2.5-.9s-2.5.2-2.5.4zM928.3 576.7c-2.6.9-1.1 1.8 3 1.8 2.3 0 4.2-.4 4.2-.9 0-.9-5.2-1.6-7.2-.9zM927.7 583.1c1.9 1.9 2.5 2.1 4.5 1 1.5-.7 1.6-1 .4-.6-1 .3-3.1-.2-4.5-1.1l-2.6-1.6 2.2 2.3zM70 585c0 .5-1.6 1-3.7 1-4.5 0-3.7 1 1.7 2 3.1.6 3.8.5 3-.5-.6-.8-.6-1.5.2-2.3.9-.9.9-1.2 0-1.2-.7 0-1.2.4-1.2 1zM70.5 591.6c-1.2.9-3 1.2-4.3.9-1.5-.4-2.1-.2-1.7.5.9 1.5 6.1 1.2 7.5-.5 1.8-2.1.9-2.6-1.5-.9zM72 595.9c0 1.3-4.3 2.2-5.1 1-1.2-1.9-1.6.5-.7 3.8.5 1.8 1.3 3.3 1.9 3.3.6 0 .7-.5.4-1-.3-.6 0-1 .7-1s.4-.6-.7-1.2c-1.8-1.1-1.7-1.2 1.5-2.3 3.2-1.1 5.4-3.5 3.1-3.5-.6 0-1.1.4-1.1.9zM921.7 601.9c-.3 1.6-.9 4-1.3 5.5-.3 1.5-.2 2.6.4 2.6.5 0 1.2-1.8 1.6-3.9.3-2.2.9-4.6 1.2-5.5.3-.9.2-1.6-.4-1.6-.5 0-1.2 1.3-1.5 2.9z"/>
  <path d="M72 601c.8.5 2 1 2.5 1 .6 0 .3-.5-.5-1s-1.9-1-2.5-1c-.5 0-.3.5.5 1zM927 604.3c0 1.3-.5 2.8-1.2 3.5-.9.9-.8 1.2.5 1.2.9 0 1.7-.6 1.7-1.3 0-.6.3-2.2.6-3.5.4-1.3.2-2.2-.5-2.2-.6 0-1.1 1-1.1 2.3zM931.9 607c-1 3-1.2 4.9-.5 4.7 1.1-.4 3.8-9.7 2.7-9.7-.4 0-1.4 2.3-2.2 5zM74.4 606.1c-.3.6-2 .9-3.6.7-2.9-.5-3-.3-2.4 2.6.9 4.2 2.8 6 2.4 2.2-.2-2.4.1-3.1 2.1-3.6 1.4-.3 2.6-1.1 2.9-1.8.5-1.5-.4-1.6-1.4-.1z"/>
  <path d="M73.3 610.7c.9.2 2.3.2 3 0 .6-.3-.1-.5-1.8-.5-1.6 0-2.2.2-1.2.5zM77 614.5c0 1.1-1.1 1.5-3.6 1.5-2.1 0-3.3.4-2.9 1 .3.5 2.5 1 4.8.9 2.3 0 3.7-.3 3.1-.5-.7-.3-1-1.4-.7-2.4.3-1.1.3-2-.1-2-.3 0-.6.7-.6 1.5zM922.5 614.4c2.2.7 4.2 1.2 4.4 1 .9-.8-.8-1.5-4.5-1.9l-3.9-.5 4 1.4zM79.1 619.8c-.1.7-1.6 1.9-3.3 2.7-3.2 1.4-3.2 1.4-.7 1.5 2.9 0 5.4-2.2 4.6-4.2-.4-1.1-.6-1-.6 0zM79.1 627.6c-.7 2-1.9 3.8-2.8 4.1-1.2.5-1.2.7-.2 1.4 1 .6.5 1.1-1.6 2-1.7.6-2.4 1.3-1.8 1.6 1.7.6 11.3-2.6 11.3-3.8 0-1.1-.3-1.1-3.4.1-1.4.5-2.6.8-2.6.5 0-1.2 2.4-5.5 3.2-5.5 1 0 1.1-2.7 0-3.4-.5-.3-1.4 1.1-2.1 3zM915.4 628.4c-1 .8-1.6 1.8-1.1 2.2.4.4.7.2.7-.4 0-2 5.5-1.4 8.4.9 3 2.4 3.5.8.6-2.1-2.3-2.3-5.8-2.6-8.6-.6zM70 629.8c0 .6.9 1.2 2 1.5 1.1.3 2 .3 2 .1 0-.2-.9-.8-2-1.4-1.1-.6-2-.7-2-.2zM913.5 634c.4 1.4 1.4 3.1 2.3 3.7 1.9 1.5 6.8 1.7 7.7.3.4-.6-.8-1-2.9-1-2.6 0-4-.7-5.7-2.8l-2.1-2.7.7 2.5zM909 645.5c0 .8.6 1.2 1.3.9.8-.3 2.6 0 4 .5 1.5.6 2.7.7 2.7.3 0-.7-5.7-3.2-7.3-3.2-.4 0-.7.7-.7 1.5zM907.6 649.8c-.3.5 1.3 1.3 3.5 1.9 4.6 1.2 5.3 0 .8-1.6-3.8-1.3-3.7-1.3-4.3-.3zM88.6 650.7c-.4.5-2.2 1.3-3.9 2-3.2 1.1-3.2 1.1 1.8 1.1 2.8 0 4.5-.2 3.8-.4-.7-.3-.9-1.2-.6-2 .6-1.5.1-1.8-1.1-.7zM902 652.5c0 1.5 8.1 9.8 8.8 9.1.3-.4-1.5-2.8-4.1-5.4-2.6-2.6-4.7-4.2-4.7-3.7zM91.1 655.8c-.1.7-1.6 1.9-3.3 2.7-3.2 1.4-3.2 1.4-.7 1.5 2.9 0 5.4-2.2 4.6-4.2-.4-1.1-.6-1-.6 0zM912.5 657c-.3.5-.1 1 .4 1 .6 0 1.1-.5 1.1-1 0-.6-.2-1-.4-1-.3 0-.8.4-1.1 1zM900 658.1c0 .5.5.7 1 .4.6-.3 1-.8 1-1.1 0-.2-.4-.4-1-.4-.5 0-1 .5-1 1.1zM92 662.5c-1.5 1.8-4.6 2-5.3.2-.4-.8-.6-.7-.6.4-.1.8.6 2.4 1.4 3.5 1.2 1.6 1.4 1.7 1.5.3 0-.9 1.1-2 2.5-2.3 1.4-.4 2.5-1.3 2.5-2.1 0-1.9-.4-1.9-2 0zM899 661.7c0 .9 1.8 2 7.2 4.1 2.2.9 2.6.9 2.2-.3-.3-.7-1.8-1.8-3.2-2.3-1.5-.6-3.5-1.3-4.4-1.7-1-.4-1.8-.3-1.8.2zM91.2 669.2c-.7.7-1.2 1.8-1.2 2.5 0 .8.8.5 2.1-.8 1.1-1.1 2.7-1.8 3.5-1.5.9.3 1.2.1.9-.4-.8-1.4-3.8-1.3-5.3.2zM901 668.6c0 2.1 2.9 3.6 5.5 3 3.6-.9 3.1-2.3-.6-1.8-2 .3-3.4 0-4-.9-.5-.8-.9-.9-.9-.3zM96.7 673c-.3 1.3-1.4 2-2.8 2-1.7 0-2 .3-1.2 1.1.7.7 1.8.9 2.7.6 1.9-.8 3.9-4.4 2.7-5.1-.5-.3-1.1.3-1.4 1.4zM898.5 673c-.3.5.3 1 1.4 1 1 0 2.8.3 3.8.7 1.6.6 1.6.5.4-1-1.5-1.9-4.6-2.3-5.6-.7zM95.3 679.6c-2.9 1.2-5.3 2.7-5.3 3.3 0 1 8.6-2.3 10.4-4 2-1.9-.1-1.6-5.1.7zM897 677.7c0 3.6 7.1 4.1 8.4.6.6-1.5.5-1.6-.5-.6-1.6 1.6-5.1 1.7-6.7.1-.8-.8-1.2-.8-1.2-.1zM894 684c0 .6 1.8 1 4 1 5.2 0 5.2-1.4 0-1.7-2.2-.2-4 .2-4 .7zM897.5 690c.3.5 1.1 1 1.6 1 .6 0 .7-.5.4-1-.3-.6-1.1-1-1.6-1-.6 0-.7.4-.4 1zM108.1 695.2c-.1 1.1-1.4 2.1-3.3 2.7-1.8.5-2.5 1-1.5 1 1.2.1 1.6.6 1.1 1.3-.6 1-.4 1 .7 0 .7-.6 2.4-1.2 3.9-1.2 1.4 0 2-.3 1.4-.8-.7-.4-1.4-1.6-1.7-2.7-.4-1.6-.5-1.6-.6-.3zM111.1 700.8c-.1.7-1.6 1.9-3.3 2.7-3.2 1.4-3.2 1.4-.7 1.5 2.9 0 5.4-2.2 4.6-4.2-.4-1.1-.6-1-.6 0zM883.6 702.7c-.3.4 1.7 1.9 4.6 3.5 5.3 2.9 6.8 3.3 6.8 2 0-1.1-10.7-6.2-11.4-5.5zM113 706c0 .5-1 1.4-2.1 2.1-1.7.9-2.3.8-3-.2-.7-1.1-.9-1.1-.9.2 0 .8.7 2.4 1.5 3.5 1.3 1.7 1.4 1.7 1.5.1 0-.9 1.1-2.3 2.5-2.9 2.4-1.1 3.5-3.8 1.5-3.8-.5 0-1 .4-1 1zM879.6 710.8c-.3.5 2 2 5 3.5 5.9 2.9 6.4 3.1 6.4 1.9 0-1.2-10.8-6.3-11.4-5.4zM115.6 711.9c-.3.5.4 1.1 1.6 1.5 1.8.4 2 .8 1.1 1.7-.9.9-1.5.9-2.7 0-1.2-1-1.4-.9-.9.8.4 1.5.1 2.1-1 2.1-.9 0-1.8-1-2-2.3-.4-2.1-.4-2.1-.6-.1 0 1.2.6 2.8 1.5 3.5 1.4 1.1 1.8 1.1 2.8-.2.6-.9 1.6-1.4 2.3-1.2 1.9.7 2.6-1.7 1.2-4.3-1.3-2.5-2.4-3-3.3-1.5zM877 715.8c0 .9 6.1 3.4 6.8 2.8.4-.4-5.2-3.6-6.3-3.6-.3 0-.5.4-.5.8zM119.8 719.3c-4.9 3.1-6 5-3.3 6.1.8.3 1.5 1.2 1.5 2.1 0 1.2.7 1.1 3.5-.7 4.3-2.8 4.6-4.4.5-2.3-3 1.5-5 1.3-5-.6 0-.5 2.1-2.2 4.6-3.8 2.6-1.5 4.2-3.1 3.8-3.3-.5-.3-3 .8-5.6 2.5zM123.1 733.4c-2.9 1.9-4.9 3.6-4.4 3.9.5.3 3.2-1 6.1-2.8 2.9-1.8 4.9-3.5 4.5-3.8-.5-.3-3.3.9-6.2 2.7zM116.5 733c-.3.5-.1 1 .4 1 .6 0 1.1-.5 1.1-1 0-.6-.2-1-.4-1-.3 0-.8.4-1.1 1zM866 732.8c0 .7 9.4 7.2 10.4 7.2 1.9 0-.1-2.1-4.5-4.9-5.4-3.3-5.9-3.5-5.9-2.3zM869.2 741c.2 1.7 1 2.6 2.6 2.8 1.2.2 2.2-.1 2.2-.7s-.5-1.1-1.1-1.1c-.7 0-1.8-.8-2.6-1.8-1.2-1.6-1.3-1.5-1.1.8zM861 741.9c0 1.1 4.9 4.3 6 3.9.5-.2-.6-1.3-2.5-2.6-1.9-1.2-3.5-1.8-3.5-1.3zM854.6 744.9c.5.4 2.6 2 4.8 3.4 4 2.7 6.6 2.6 6.6-.2 0-1.3-.2-1.4-.9-.2-.8 1.2-1.6 1-5-1.2-3.8-2.5-7.7-3.8-5.5-1.8zM140.4 748.8c.4.7-.6 2-2.6 3.2-3.5 2.1-1.9 2.8 2.7 1 2-.8 2.7-.7 3.1.5.9 2.3-1.6 4.7-4.3 4.2-2.8-.5-3.1.9-.4 1.6 2.5.6 6.1-1.9 6.1-4.3 0-1-.9-2.5-2-3.3-1.1-.8-1.7-1.6-1.4-1.9.3-.3 0-.9-.7-1.4-.8-.4-1-.3-.5.4zM854.5 751c-.3.6.5 1 1.9 1s3 .8 3.5 1.7c.9 1.5 1 1.5 1.1.2 0-3.1-5-5.4-6.5-2.9zM852 754.8c0 1.7 3 4.2 4.9 4.2 1 0 2.4-.6 3-1.4.9-1.1.6-1.2-1.4-.8-1.6.3-3.3-.2-4.5-1.3-1.1-1-2-1.3-2-.7zM147 759.3c0 2.2-3.3 4-4.8 2.5-.9-.9-1.2-.8-1.2.3 0 .9.9 2.4 2.1 3.5 1.8 1.6 2 1.6 1.8.3-.2-.9.7-2.6 2.1-3.7 2-1.7 2.3-2.3 1.3-3.3-1.1-1.1-1.3-1-1.3.4zM152 764.4c0 .5.8 1.8 1.7 2.8 1.5 1.7 1.6 2 0 3.5-1.5 1.6-1.8 1.5-3.5 0-1-.9-2.3-1.7-2.8-1.7s-.1.5.9 1.1c2.3 1.4 2.2 3.4-.5 5.1-1.2.8-1.7 1.7-1.2 2.1.9.5 9.6-5.6 10.1-7.1.1-.4-.9-2.1-2.2-3.7-1.4-1.7-2.5-2.6-2.5-2.1zM838.2 772c-3.3 4.4-2.7 6 .8 2 1.6-1.9 2.9-3.8 3-4.3 0-1.6-1.7-.5-3.8 2.3zM842 776.1c0 .4 1.8.9 4 1.1 2.2.2 4 .1 4-.3s-1.8-.9-4-1.1c-2.2-.2-4-.1-4 .3zM835 781.6c1.7 1.5 3.4 2.4 3.7 2 .8-.7-3.8-4.5-5.5-4.6-.8 0 .1 1.2 1.8 2.6zM826 782.5c.7.9 1.5 1.3 1.7 1.1.7-.7-.7-2.6-1.9-2.6-.6 0-.6.6.2 1.5zM168.4 784.8c.4.7-.6 2-2.6 3.2-3.9 2.3-1.7 2.7 3.3.5 2.1-.8 2.7-1.4 1.6-1.5-1 0-1.6-.4-1.2-.9.3-.5 0-1.3-.6-1.7-.8-.4-.9-.3-.5.4zM829 786c0 .5.5 1 1.1 1 .5 0 .7-.5.4-1-.3-.6-.8-1-1.1-1-.2 0-.4.4-.4 1zM822.3 787.4c1.2.9 1.4 1.6.8 2.1-1.7 1-1.3 2.5.5 1.8.8-.3 2.5.4 4 1.7 1.3 1.3 2.4 1.9 2.4 1.4 0-1.3-7.3-8.4-8.5-8.4-.6 0-.2.7.8 1.4zM834.7 786.7c-.4.3-.7 1.1-.7 1.7 0 .6.5.5 1.2-.2.6-.6.9-1.4.7-1.7-.3-.3-.9-.2-1.2.2zM830.7 790c.3 1.1.9 2 1.5 2 .5 0 .4-.9-.2-2-.6-1.1-1.2-2-1.4-2-.2 0-.2.9.1 2zM171.7 791.3c-.9 1.4-2.7 2.8-3.9 3-2.1.4-2.1.4.3.6 2.8.1 6.4-3 5.7-5-.2-.7-1.1-.1-2.1 1.4zM175.5 795.3c-.6 1.4-1.8 2.2-3.3 2.1-2.8-.1-2.4 1.4.8 3.5 1.6 1.1 2.2 1.2 1.6.3-.5-.9 0-2.2 1.5-3.8 1.4-1.5 1.9-2.8 1.3-3.4-.6-.6-1.3-.1-1.9 1.3zM819.5 794c-.3.5 0 1 .8 1s2.2.9 3.2 2 2.3 2 2.8 2c.6 0-.2-1.4-1.8-3-3.1-3.2-4-3.6-5-2zM815.3 799c-.3 1.1-1.2 2-1.9 2-.8 0-1.4.4-1.4 1 0 .5.7.7 1.5.4.9-.4 1.9.3 2.6 2 .7 1.4 1.6 2.6 2 2.6.9 0-.1-3.9-1.2-4.6-1.4-.8-1.1-4.4.4-4.4 1.7 0 3.2 1.2 4.5 3.5 1.4 2.5 1.6.1.2-2.6-1.4-2.6-6-2.6-6.7.1zM180 800c0 .5.7.7 1.5.4.8-.4 1.5-.8 1.5-1 0-.2-.7-.4-1.5-.4s-1.5.4-1.5 1zM183.4 802.7c-1 1.6-1.3 1.6-3 .3-1.8-1.4-1.8-1.4-.5.3 1.3 1.6 1.3 2 .1 2.7-.8.5-1.1 1.3-.6 1.7.4.4 1.3 0 2-1 .7-.9 1.8-1.7 2.5-1.7.6 0 1.1-.9 1.1-2 0-2.4-.2-2.5-1.6-.3zM176 804c0 .5.5 1 1.1 1 .5 0 .7-.5.4-1-.3-.6-.8-1-1.1-1-.2 0-.4.4-.4 1zM186 805.4c0 .2.7.6 1.5 1 .8.3 1.5.1 1.5-.4 0-.6-.7-1-1.5-1s-1.5.2-1.5.4zM191 809.8c0 .5-2.3 1.3-5.2 1.6-5.8.8-7.1 1.3-6.3 2.6.3.6 1.5.6 2.8 0 1.2-.5 4.4-1.2 7-1.5 2.9-.4 4.7-1.1 4.4-1.8-.4-1.4-2.7-2.2-2.7-.9zM795.6 817.8c-.3.6-.3 1.2.1 1.4.5.1 2.5 2.2 4.5 4.5 2.2 2.5 4 3.8 4.4 3.2.4-.6-1.4-3.1-3.8-5.6-2.6-2.6-4.8-4.1-5.2-3.5zM790.8 824.1c1.3.5 2.6 1.8 2.9 2.9.5 1.9 2.3 2.9 2.3 1.2 0-2-3.3-5.2-5.3-5.1-2.2 0-2.2 0 .1 1zM206.6 827.4c-.3 1.3-.9 3.1-1.2 4-.3.9-.2 1.6.4 1.6.9 0 3.2-5.1 3.2-7.1 0-1.9-1.8-.7-2.4 1.5zM785.5 827.1c-1.6 1.6-1.6 1.9-.3 1.4 1.2-.5 2.1.3 3.4 2.7 1.5 3 1.8 3.1 2.4 1.3.5-1.3.2-2.3-.6-2.8-.8-.4-1.4-1.7-1.4-2.7 0-2.5-.9-2.4-3.5.1zM201 828.1c0 .5.5.7 1 .4.6-.3 1-.8 1-1.1 0-.2-.4-.4-1-.4-.5 0-1 .5-1 1.1zM211.8 831.1c-1.2.6-1.8 2.1-1.7 4.2l.1 3.2.9-3c.5-1.6 1.6-3.6 2.6-4.2 2-1.5.5-1.7-1.9-.2zM781.5 832.2c1.1.6 2.4 1.7 2.8 2.5.4.7 1.6 1.3 2.5 1.3 1.3 0 1-.6-1.2-2.5-1.6-1.4-3.6-2.5-4.5-2.5-1.2.1-1.1.3.4 1.2zM217 833.7c0 1.2-1 2.9-2.2 3.7-1.6 1.2-1.8 1.6-.7 1.6.9 0 2.4-.9 3.3-1.9 1.4-1.5 1.5-2.4.7-3.8-1-1.7-1-1.6-1.1.4zM778 836.4c0 1.6 2.6 3.9 3.7 3.4.4-.1-.2-1.3-1.4-2.5-1.5-1.4-2.3-1.8-2.3-.9zM221.5 837c.3.5.8 1 1.1 1 .2 0 .4-.5.4-1 0-.6-.5-1-1.1-1-.5 0-.7.4-.4 1zM222.7 842.1c-2.2 1.1-3.7 2.3-3.4 2.5.7.7 8.7-2.7 8.7-3.7 0-1.3-1-1.1-5.3 1.2zM228.3 846.6c-1.2 1.9-1.8 3.4-1.3 3.4 1.3 0 5.2-5.8 4.3-6.3-.5-.3-1.8 1.1-3 2.9zM218 848.5c0 .8.4 1.5 1 1.5.5 0 .7-.7.4-1.5-.4-.8-.8-1.5-1-1.5-.2 0-.4.7-.4 1.5zM233.7 848.7c-.4.3-.7 1.4-.7 2.4 0 1.3-.5 1.7-1.7 1.3-1.2-.4-.8.4 1 2 1.5 1.4 3.4 2.6 4.2 2.6 1.8 0 4.5-2.7 4.5-4.5 0-2.4-1.8-2.6-2.2-.3-.4 3.1-4.2 3.1-4.6 0-.2-1.6.3-2.5 2-3.1 2.2-.9 2.2-1 .2-1-1.1-.1-2.4.2-2.7.6zM758.7 848.6c-.8 1.3 2.6 5 5.4 5.9 1.3.4 2.9 1.2 3.6 1.7.7.5 1.4.5 1.8-.1.3-.6-1.1-1.7-3.2-2.6-2.1-.9-4.5-2.5-5.4-3.7-.9-1.1-1.9-1.7-2.2-1.2zM243.4 854.6c0 .9-.8 2.1-1.9 2.8-1.1.6-2.2 1.2-2.5 1.4-.7.5 4.3 4.2 5.7 4.2.7 0 1-.6.7-1.4-.3-.8.5-2.4 1.8-3.6 2.2-2.1 2.2-2.2.2-1.2-1.2.7-2.4 1.9-2.8 2.7-.3.9-1 1.3-1.6 1-.7-.4-.5-1.4.5-2.8 1.7-2.4 2-4.7.6-4.7-.5 0-.8.7-.7 1.6zM752 854.9c0 1.1.4 2.2.9 2.5.4.3.6-.6.3-1.9-.5-3-1.2-3.3-1.2-.6zM747 857c0 .5.6 1 1.4 1 1.6 0 3.1 3.4 2.1 5-.3.5-.3 1 0 1 1.3 0 6.5-3.4 6.5-4.2 0-1.3-2.8-.9-3.3.4-.3.8-1.2.3-2.6-1.5-2.3-2.7-4.1-3.5-4.1-1.7zM252.6 860c3.1 1.2 3.9 3 2.1 4.7-1.2 1.2-1.9 1.3-3.8.3l-2.4-1.1 2.3 1.8c2 1.7 2.1 2 .7 3.9-.8 1.2-1.1 2.4-.8 2.8.3.3 2.2-1.7 4.1-4.6l3.5-5.1-2.4-1.8c-1.3-1-3.1-1.8-3.9-1.8-.9 0-.6.4.6.9zM743.8 861.1c2.4.9 2.8 4.9.6 5.6-1.7.6-4.6-2.7-4-4.4.3-.8.1-1.1-.4-.8-1.8 1.1-1.1 4.5 1.2 5.4 1.4.5 1.7 1 1 1.5-2.7 1.7-.9 2.6 1.8.9 5.2-3 4.9-9.4-.4-9.2-2 0-2 .1.2 1zM734.4 867.6c.9.8 2.1 2.5 2.7 3.6.6 1.1 1.3 1.7 1.6 1.5.8-.9-3-6.7-4.5-6.7-1 0-1 .4.2 1.6zM729.9 868.4c-.8.8.3 8.6 1.1 8.1.4-.3.6-2.2.3-4.2-.5-4.1-.7-4.5-1.4-3.9zM723.5 872c-.3.5-.2 1 .4 1 .5 0 1.3-.5 1.6-1 .3-.6.2-1-.4-1-.5 0-1.3.4-1.6 1zM272.6 873.5c.4.9-.4 2.3-1.7 3.5-3.5 2.8-.9 2.4 3.1-.5 2.3-1.7 2.8-2.5 1.7-2.5-.9 0-1.7-.5-1.7-1 0-.6-.4-1-1-1-.5 0-.7.7-.4 1.5zM717.7 875.8c-3.2 3.5-1.4 7.3 3.3 7.1 2.3-.2 2.3-.2.2-.6-2.9-.6-4.8-3.9-3.2-5.8 1.6-1.9 4.7-.3 5.3 2.7.3 2.1.4 2.1 1.1.5.6-1.2.3-2.4-.9-3.7-2.2-2.5-3.7-2.5-5.8-.2zM278 876.9c0 1.1-1 2.9-2.2 4.1-1.2 1.1-1.6 2-1 2 1.7 0 5.2-3.7 5.2-5.4 0-.8-.4-1.8-1-2.1-.5-.3-1 .3-1 1.4zM283 879.9c0 2.2-2.5 4.5-4 3.6-.5-.3-1-.2-1 .3s1.1 1.4 2.5 2c3.3 1.5 4 1.5 2.7-.1-.7-.8-.6-1.8.4-3.1 1.6-2.3 1.8-4.6.4-4.6-.5 0-1 .8-1 1.9zM733.8 879.7c.7.3 1.6.2 1.9-.1.4-.3-.2-.6-1.3-.5-1.1 0-1.4.3-.6.6zM710 880.8c0 1.5 4.8 5.4 6 5 .7-.2-.4-1.6-2.4-3.1-2-1.6-3.6-2.4-3.6-1.9zM291.8 886.8c-2.7 1.6-3.7 3.2-2 3.2.4 0 2.1-1.1 3.7-2.5 3.4-2.8 2.3-3.3-1.7-.7zM297.5 887c-.3.5.3 1 1.4 1 2.5 0 3.7 1.8 1.7 2.6-.9.3-1.3 1.1-1 1.6.4.6 0 1.4-.7 1.9-1.2.7-1.1.9.1.9.8 0 2.1-1.4 2.9-3.1 1.2-2.7 1.1-3.2-.5-4.4-2.3-1.7-3.1-1.8-3.9-.5zM709.5 888c.3.5.8 1 1.1 1 .2 0 .4-.5.4-1 0-.6-.5-1-1.1-1-.5 0-.7.4-.4 1zM303.9 893.3c0 2.3-.2 5.2-.5 6.4-.5 2.7.8 3 2.7.6 1-1.1 1-1.4.2-.9-1.6.9-1.8-3.1-.4-6.7.8-1.9.6-2.7-.5-3.1-1.1-.4-1.4.4-1.5 3.7zM690 890.5c0 1.5 5.2 10.5 6 10.5.5 0-.2-2.5-1.7-5.5-2.3-4.7-4.3-7-4.3-5zM295 892.9c0 .6.4 1.3 1 1.6.6.3.7-.1.4-.9-.7-1.8-1.4-2.1-1.4-.7zM682.6 893.9c-.8 1.2 4 11.1 5.4 11.1.5 0-.3-2.6-1.7-5.8-3.1-6.8-2.9-6.6-3.7-5.3zM288 895c0 .5.5 1 1.1 1 .5 0 .7-.5.4-1-.3-.6-.8-1-1.1-1-.2 0-.4.4-.4 1zM671 895.4c0 1.4 4 9.5 5 10.1.6.4 1.7.2 2.3-.4.8-.8.7-1.1-.4-1.1-.9 0-2.4-1.8-3.4-4-1.6-3.6-3.5-6.1-3.5-4.6zM678.2 898.7c1.4 3.4 2.9 5.5 3.5 4.9.6-.6-3-7.6-3.9-7.6-.4 0-.2 1.2.4 2.7zM327.7 901.8c.2 1-.3 2.4-1.1 3.1-2.2 1.8-2 3 .3 2.8 1.1 0 1.8-.4 1.5-.8-.2-.4.6-1.8 1.7-3.3 1.5-1.9 1.6-2.4.5-2-.9.3-1.6.1-1.6-.5s-.4-1.1-.9-1.1-.7.8-.4 1.8zM667.2 900.7c.3.5 1.1 2.3 1.8 4 .8 1.8 1.8 3.3 2.2 3.3 1.1 0 1-.2-.7-4.4-.8-2-2-3.6-2.6-3.6-.6 0-.9.3-.7.7zM333.7 904c.3 1.2-.2 2.9-1.2 4s-1.3 2-.8 2c2.6 0 4.7-5.4 2.8-7-1.1-.9-1.2-.7-.8 1zM345.1 904.3c-.1 1.4-.6 1.7-2.3 1.1-2-.6-2.1-.5-1 .9 1 1.2 1.1 2.1.2 3.7-.6 1.2-.9 2.6-.7 3.3.2.7 1.4-1 2.6-3.7 1.2-2.7 1.9-5.4 1.7-6-.2-.6-.5-.3-.5.7zM337.3 905.2c0 .7-.4 2.6-.7 4.3-.7 3-.7 3 1.3-.5 1.8-3.3 1.9-5 .2-5-.4 0-.8.6-.8 1.2zM354 907.5c0 .9-.9 1.5-2.2 1.5-1.7 0-1.9.3-.9.9.9.6 1.1 1.8.6 4.1-.5 2.2-.4 3 .4 2.6.5-.4 1.3-2.2 1.7-4.1.3-2 1-3.8 1.5-4.1 1.2-.7 1.1-2.4-.1-2.4-.5 0-1 .7-1 1.5zM347 908.9c0 1.2-.5 3.1-1 4.1-.6 1-.6 2.1-.2 2.4 1.3.8 3.4-6.6 2.2-7.8-.7-.7-1-.2-1 1.3zM630.6 912.2c2.2 7.2 4.6 10.9 5.8 8.9.3-.5-.1-1.1-.9-1.5-.8-.3-2-2.6-2.6-5.1-.6-2.5-1.6-4.5-2.1-4.5s-.6 1-.2 2.2zM641 910.4c0 1 11.9 9.5 12.4 8.8.3-.5-.8-1.9-2.5-3.1-1.6-1.2-2.7-2.6-2.4-3.1.3-.6 0-.7-.8-.4-.8.3-2-.2-2.7-1.1-1.1-1.3-4-2.2-4-1.1zM356.6 912.5c.4.8-.1 2.6-1 4-2.6 3.9-.2 2.9 3-1.2 1.9-2.6 2.3-3.5 1.1-3-.9.3-1.7.2-1.7-.3 0-.6-.4-1-1-1-.5 0-.7.7-.4 1.5zM637.4 915.7c.7 2 1.8 3.9 2.4 4.1.7.2.5-1.2-.5-3.7-2-5.1-3.7-5.4-1.9-.4zM363 915.2c0 1.6-.9 3.3-2.2 4.2-1.7 1.2-1.8 1.6-.6 1.6 2.8 0 5.3-4.7 3.7-7.1-.6-1-.9-.7-.9 1.3zM626.5 916.7c.4 1 1 2.8 1.2 4 .3 1.3 1 2.3 1.5 2.3.6 0 .7-.7.4-1.6-.3-.9-.9-2.7-1.2-4-.3-1.3-1.1-2.4-1.6-2.4-.6 0-.7.8-.3 1.7zM371.3 920.2c-.7 2.4-1.5 5.1-1.8 6-.4 1-.3 1.8.3 1.8 1 0 4.2-8.1 4.2-10.7 0-2.8-1.6-1.1-2.7 2.9zM612 920.7c.1 3.4 2.6 11.7 3.3 10.7.8-1.4-1.4-12.4-2.5-12.4-.4 0-.8.8-.8 1.7zM391 922c1.3.8 1.3 1.3-.3 4.1-1.1 2-1.3 2.9-.5 2.7.7-.3 1.9-1.7 2.6-3.2.8-1.6 2-2.6 3-2.4 2.5.5 2.6 3.4.3 5.7-2.3 2.3-1.5 2.8 1.3.8 1.2-.9 1.7-2.3 1.4-4.2-.2-2.5-.8-3-3-3-1.5-.1-3-.4-3.4-.8-.4-.4-1.2-.7-1.8-.7-.6 0-.4.5.4 1zM603.4 923.7c2 8.1 2.8 10.3 3.5 9.9 1-.7-2.1-12.6-3.2-12.6-.5 0-.6 1.2-.3 2.7zM597.8 924c2.5 1.1 3 4.8.7 5.6-2.1.8-4.7-1.6-4.2-3.8.3-1 .1-1.8-.4-1.8s-.9 1.1-.9 2.5.5 2.5 1 2.5c1.7 0 1.1 1.8-.7 2.3-1 .3-.5.5 1.2.6 3.4.1 7.5-2.3 7.5-4.4 0-1.9-2.8-4.5-4.8-4.4-1.2 0-1.1.3.6.9zM402.8 927c.3 2.3 0 3-1.2 3-.9 0-1.6.4-1.6 1 0 .5 1.5 1 3.3.9 1.7 0 2.6-.3 1.9-.6-.9-.3-1.1-1.6-.6-3.9.5-2.6.3-3.4-.8-3.4-1 0-1.3.9-1 3zM409.7 925.7c-.4.3-.7 1.1-.7 1.7 0 .6.5.5 1.2-.2.6-.6.9-1.4.7-1.7-.3-.3-.9-.2-1.2.2zM586.8 926.2c.7.7 1.2 2.2 1.2 3.4 0 1.3.5 2.6 1 2.9.6.3 1-.1 1-.9 0-2.6-1.9-6.6-3.2-6.6-.9 0-.9.3 0 1.2zM413.5 927c.3.5.3 1.6-.1 2.2-1.2 1.8-1.2 4.8-.1 4.8.5 0 .7-.9.4-2-.3-1.1-.1-2 .4-2s.9-.9.9-2-.5-2-1.1-2c-.5 0-.7.4-.4 1zM417.1 928.4c-.9 1.1-1 2-.1 3.5.8 1.5.8 2.1 0 2.1-1.5 0-.8 4.2.7 4.7.7.3.9-.3.6-1.6-.3-1.4 0-2.3 1.1-2.7 1.6-.6 1.6-.8.1-2.4-1.5-1.7-1.5-1.9.7-3.4 2.2-1.6 2.2-1.6.1-1.6-1.1 0-2.6.6-3.2 1.4zM554.4 928.5c.3.9-.1 1.8-1 2.2-1.5.5-1.5.7 0 1.5.9.5 1.6 2.2 1.6 4 0 1.8.4 2.8.8 2.2 1.2-1.3.2-11.4-1-11.4-.6 0-.7.7-.4 1.5zM423.5 929.3c.3.7.1 3.4-.4 6-.4 2.6-.5 4.7 0 4.7.9 0 1.5-1.9 2.4-7.8.6-3.4.4-4.2-.9-4.2-.8 0-1.3.6-1.1 1.3zM460 935c0 5.6.2 6 2.3 6 2-.1 2-.2.4-1.1-1.5-.9-1.6-1.9-1.1-6 .5-3.4.3-4.9-.5-4.9-.7 0-1.1 2.2-1.1 6zM535.2 931c0 1.4.2 1.9.5 1.2.2-.6.2-1.8 0-2.5-.3-.6-.5-.1-.5 1.3zM560.7 930.8c-3.5 3.9-1.5 9.7 3.8 10.7 1.7.3 2.3.2 1.5-.1-4.6-2-6.2-6.2-4-10.5 1.3-2.4.8-2.4-1.3-.1zM567.1 931.1c1.7 1.7 2 2.9 1.6 6.3-.5 3.7-.4 3.9.9 2.2 1.9-2.7 1.8-7-.4-8.9-2.7-2.5-4.6-2.1-2.1.4zM448.9 932.4c.8 1 .8 2.1.1 4-1.3 3.6-1.3 4.1.5 2.6.8-.7 1.5-2 1.5-2.9 0-.9.6-2.3 1.3-3 1-1.1.9-1.3-.5-.8-1 .4-1.8.2-1.8-.3 0-.6-.5-1-1.1-1-.8 0-.8.4 0 1.4zM548.6 933.7c1.2 5 2.4 6.1 2.2 1.9-.2-2.2-.9-4.1-1.6-4.4-.9-.3-1.1.4-.6 2.5zM408.5 933c.3.5.8 1 1.1 1 .2 0 .4-.5.4-1 0-.6-.5-1-1.1-1-.5 0-.7.4-.4 1zM454.8 933.1c1.7 1.8 1.5 3.9-.5 6.2-1.8 1.9-1.7 2 .5.8 1.8-1 2.2-1.9 2-4.3-.2-1.7-1-3.3-1.8-3.6-1.2-.4-1.3-.2-.2.9zM540 933.6c0 .8.5 1.2 1 .9.6-.3 1-1 1-1.6 0-.5-.4-.9-1-.9-.5 0-1 .7-1 1.6zM544.6 933.2c.4.6-.1 1.7-1.1 2.5-1.7 1.2-1.7 1.3-.2 1.3.9 0 1.7.8 1.7 1.7 0 1 .3 1.3.9.7 1.1-1.1.2-7.4-1.1-7.4-.5 0-.6.5-.2 1.2zM465.6 934.6c-.9 2.4-.7 6.2.4 6.9.6.4 1-1.2 1-3.9 0-4.8-.4-5.6-1.4-3zM471.8 934.1c1.7 1.8 1.5 4.8-.3 5.5-2.4 1-.7 2.4 2.8 2.4 3.1 0 3.2-.1 3.3-4.6.1-2.7-.2-4-.7-3.2-.5.7-.9 2.3-.9 3.5 0 3.5-1.8 2.7-2.2-.9-.2-1.7-1-3.3-1.8-3.6-1.2-.4-1.3-.2-.2.9zM521.8 934.1c.7 1 1 2.8.5 4.9-.4 2.2-.3 3.1.4 2.7.6-.4 1.4-2.3 1.7-4.3.5-2.6 1.2-3.4 2.4-3.2 2.4.5 2.8 4.9.6 6.5-1.6 1.2-1.6 1.3-.1 1.3 2.5 0 4.2-4.2 2.8-6.9-1.2-2.2-4.5-2.8-5.6-1.1-.5.8-1.2.7-2.3-.2-1.5-1.1-1.5-1.1-.4.3zM481.8 934.7c.7.3 1.6.2 1.9-.1.4-.3-.2-.6-1.3-.5-1.1 0-1.4.3-.6.6zM486.6 937.5c-1.1 1.9-1.7 3.8-1.3 4.1.3.3 1.5-1.2 2.7-3.5 2.5-5 1.2-5.5-1.4-.6zM534 934.9c0 .6.5 1.3 1 1.6.6.3 1-.1 1-.9 0-.9-.4-1.6-1-1.6-.5 0-1 .4-1 .9zM532.6 938.6c-.4.9-.4 1.9-.1 2.2.2.3.7-.3 1.1-1.2.4-.9.4-1.9.1-2.2-.2-.3-.7.3-1.1 1.2zM537 940c0 .5.5 1 1 1 .6 0 1-.5 1-1 0-.6-.4-1-1-1-.5 0-1 .4-1 1zM541.5 940c.3.5 1.1 1 1.6 1 .6 0 .7-.5.4-1-.3-.6-1.1-1-1.6-1-.6 0-.7.4-.4 1z"/>
</svg>
